<svg fill="#f73b3b" width="512" height="512" version="1.1" xmlns="http://www.w3.org/2000/svg" desc="Created with imagetracer.js version 1.2.6" ><path fill="#f73b3b" stroke="#f73b3b" stroke-width="1" opacity="0.9254901960784314" d="M 286.5 0 L 289 0.5 L 286.5 1 L 286.5 0 Z " /><path fill="#f73b3b" stroke="#f73b3b" stroke-width="1" opacity="0.9254901960784314" d="M 195.5 12 L 193.5 15 L 195.5 12 Z " /><path fill="#f73b3b" stroke="#f73b3b" stroke-width="1" opacity="0.9254901960784314" d="M 316.5 12 L 318.5 15 L 316.5 12 Z " /><path fill="#f73b3b" stroke="#f73b3b" stroke-width="1" opacity="0.9254901960784314" d="M 181.5 42 L 182 44.5 L 181 44.5 L 181.5 42 Z " /><path fill="#f73b3b" stroke="#f73b3b" stroke-width="1" opacity="0.9254901960784314" d="M 330.5 42 L 331 44.5 L 330 44.5 L 330.5 42 Z " /><path fill="#f73b3b" stroke="#f73b3b" stroke-width="1" opacity="0.9254901960784314" d="M 70.5 68 L 69.5 70 L 70.5 68 Z " /><path fill="#f73b3b" stroke="#f73b3b" stroke-width="1" opacity="0.9254901960784314" d="M 441.5 68 L 442.5 70 L 441.5 68 Z " /><path fill="#f73b3b" stroke="#f73b3b" stroke-width="1" opacity="0.9254901960784314" d="M 93.5 160 L 94 162.5 L 93 162.5 L 93.5 160 Z " /><path fill="#f73b3b" stroke="#f73b3b" stroke-width="1" opacity="0.9254901960784314" d="M 418.5 160 L 419 162.5 L 418 162.5 L 418.5 160 Z " /><path fill="#f73b3b" stroke="#f73b3b" stroke-width="1" opacity="0.9254901960784314" d="M 94.5 172 L 95 174.5 L 94 174.5 L 94.5 172 Z " /><path fill="#f73b3b" stroke="#f73b3b" stroke-width="1" opacity="0.9254901960784314" d="M 417.5 172 L 418 174.5 L 417 174.5 L 417.5 172 Z " /><path fill="#f73b3b" stroke="#f73b3b" stroke-width="1" opacity="0.9254901960784314" d="M 181.5 183 L 183.5 186 L 181.5 183 Z " /><path fill="#f73b3b" stroke="#f73b3b" stroke-width="1" opacity="0.9254901960784314" d="M 330.5 183 L 328.5 186 L 330.5 183 Z " /><path fill="#f73b3b" stroke="#f73b3b" stroke-width="1" opacity="0.9254901960784314" d="M 95.5 184 L 96 186.5 L 95 186.5 L 95.5 184 Z " /><path fill="#f73b3b" stroke="#f73b3b" stroke-width="1" opacity="0.9254901960784314" d="M 416.5 184 L 417 186.5 L 416 186.5 L 416.5 184 Z " /><path fill="#f73b3b" stroke="#f73b3b" stroke-width="1" opacity="0.9254901960784314" d="M 96.5 196 L 97 198.5 L 96 198.5 L 96.5 196 Z " /><path fill="#f73b3b" stroke="#f73b3b" stroke-width="1" opacity="0.9254901960784314" d="M 415.5 196 L 416 198.5 L 415 198.5 L 415.5 196 Z " /><path fill="#f73b3b" stroke="#f73b3b" stroke-width="1" opacity="0.9254901960784314" d="M 187.5 203 L 188 205.5 L 187 205.5 L 187.5 203 Z " /><path fill="#f73b3b" stroke="#f73b3b" stroke-width="1" opacity="0.9254901960784314" d="M 324.5 203 L 325 205.5 L 324 205.5 L 324.5 203 Z " /><path fill="#f73b3b" stroke="#f73b3b" stroke-width="1" opacity="0.9254901960784314" d="M 188.5 215 L 189 217.5 L 188 217.5 L 188.5 215 Z " /><path fill="#f73b3b" stroke="#f73b3b" stroke-width="1" opacity="0.9254901960784314" d="M 323.5 215 L 324 217.5 L 323 217.5 L 323.5 215 Z " /><path fill="#f73b3b" stroke="#f73b3b" stroke-width="1" opacity="0.9254901960784314" d="M 158.5 225 L 159 227.5 L 158 227.5 L 158.5 225 Z " /><path fill="#f73b3b" stroke="#f73b3b" stroke-width="1" opacity="0.9254901960784314" d="M 353.5 225 L 354 227.5 L 353 227.5 L 353.5 225 Z " /><path fill="#f73b3b" stroke="#f73b3b" stroke-width="1" opacity="0.9254901960784314" d="M 189.5 227 L 190 229.5 L 189 229.5 L 189.5 227 Z " /><path fill="#f73b3b" stroke="#f73b3b" stroke-width="1" opacity="0.9254901960784314" d="M 322.5 227 L 323 229.5 L 322 229.5 L 322.5 227 Z " /><path fill="#f73b3b" stroke="#f73b3b" stroke-width="1" opacity="0.9254901960784314" d="M 159.5 237 L 160 239.5 L 159 239.5 L 159.5 237 Z " /><path fill="#f73b3b" stroke="#f73b3b" stroke-width="1" opacity="0.9254901960784314" d="M 352.5 237 L 353 239.5 L 352 239.5 L 352.5 237 Z " /><path fill="#f73b3b" stroke="#f73b3b" stroke-width="1" opacity="0.9254901960784314" d="M 160.5 249 L 161 251.5 L 160 251.5 L 160.5 249 Z " /><path fill="#f73b3b" stroke="#f73b3b" stroke-width="1" opacity="0.9254901960784314" d="M 351.5 249 L 352 251.5 L 351 251.5 L 351.5 249 Z " /><path fill="#f73b3b" stroke="#f73b3b" stroke-width="1" opacity="0.9254901960784314" d="M 161.5 261 L 162 263.5 L 161 263.5 L 161.5 261 Z " /><path fill="#f73b3b" stroke="#f73b3b" stroke-width="1" opacity="0.9254901960784314" d="M 350.5 261 L 351 263.5 L 350 263.5 L 350.5 261 Z " /><path fill="#f73b3b" stroke="#f73b3b" stroke-width="1" opacity="0.9254901960784314" d="M 162.5 273 L 163 275.5 L 162 275.5 L 162.5 273 Z " /><path fill="#f73b3b" stroke="#f73b3b" stroke-width="1" opacity="0.9254901960784314" d="M 349.5 273 L 350 275.5 L 349 275.5 L 349.5 273 Z " /><path fill="#f73b3b" stroke="#f73b3b" stroke-width="1" opacity="0.9254901960784314" d="M 103.5 281 L 104 283.5 L 103 283.5 L 103.5 281 Z " /><path fill="#f73b3b" stroke="#f73b3b" stroke-width="1" opacity="0.9254901960784314" d="M 408.5 281 L 409 283.5 L 408 283.5 L 408.5 281 Z " /><path fill="#f73b3b" stroke="#f73b3b" stroke-width="1" opacity="0.9254901960784314" d="M 163.5 285 L 164 287.5 L 163 287.5 L 163.5 285 Z " /><path fill="#f73b3b" stroke="#f73b3b" stroke-width="1" opacity="0.9254901960784314" d="M 348.5 285 L 349 287.5 L 348 287.5 L 348.5 285 Z " /><path fill="#f73b3b" stroke="#f73b3b" stroke-width="1" opacity="0.9254901960784314" d="M 104.5 293 L 105 295.5 L 104 295.5 L 104.5 293 Z " /><path fill="#f73b3b" stroke="#f73b3b" stroke-width="1" opacity="0.9254901960784314" d="M 407.5 293 L 408 295.5 L 407 295.5 L 407.5 293 Z " /><path fill="#f73b3b" stroke="#f73b3b" stroke-width="1" opacity="0.9254901960784314" d="M 195.5 300 L 196 302.5 L 195 302.5 L 195.5 300 Z " /><path fill="#f73b3b" stroke="#f73b3b" stroke-width="1" opacity="0.9254901960784314" d="M 316.5 300 L 317 302.5 L 316 302.5 L 316.5 300 Z " /><path fill="#f73b3b" stroke="#f73b3b" stroke-width="1" opacity="0.9254901960784314" d="M 105.5 305 L 106 307.5 L 105 307.5 L 105.5 305 Z " /><path fill="#f73b3b" stroke="#f73b3b" stroke-width="1" opacity="0.9254901960784314" d="M 406.5 305 L 407 307.5 L 406 307.5 L 406.5 305 Z " /><path fill="#f73b3b" stroke="#f73b3b" stroke-width="1" opacity="0.9254901960784314" d="M 196.5 312 L 197 314.5 L 196 314.5 L 196.5 312 Z " /><path fill="#f73b3b" stroke="#f73b3b" stroke-width="1" opacity="0.9254901960784314" d="M 315.5 312 L 316 314.5 L 315 314.5 L 315.5 312 Z " /><path fill="#f73b3b" stroke="#f73b3b" stroke-width="1" opacity="0.9254901960784314" d="M 106.5 317 L 107 319.5 L 106 319.5 L 106.5 317 Z " /><path fill="#f73b3b" stroke="#f73b3b" stroke-width="1" opacity="0.9254901960784314" d="M 405.5 317 L 406 319.5 L 405 319.5 L 405.5 317 Z " /><path fill="#f73b3b" stroke="#f73b3b" stroke-width="1" opacity="0.9254901960784314" d="M 197.5 324 L 198 326.5 L 197 326.5 L 197.5 324 Z " /><path fill="#f73b3b" stroke="#f73b3b" stroke-width="1" opacity="0.9254901960784314" d="M 314.5 324 L 315 326.5 L 314 326.5 L 314.5 324 Z " /><path fill="#f73b3b" stroke="#f73b3b" stroke-width="1" opacity="0.9254901960784314" d="M 107.5 329 L 108 331.5 L 107 331.5 L 107.5 329 Z " /><path fill="#f73b3b" stroke="#f73b3b" stroke-width="1" opacity="0.9254901960784314" d="M 404.5 329 L 405 331.5 L 404 331.5 L 404.5 329 Z " /><path fill="#f73b3b" stroke="#f73b3b" stroke-width="1" opacity="0.9254901960784314" d="M 198.5 336 L 199 338.5 L 198 338.5 L 198.5 336 Z " /><path fill="#f73b3b" stroke="#f73b3b" stroke-width="1" opacity="0.9254901960784314" d="M 313.5 336 L 314 338.5 L 313 338.5 L 313.5 336 Z " /><path fill="#f73b3b" stroke="#f73b3b" stroke-width="1" opacity="0.9254901960784314" d="M 108.5 341 L 109 343.5 L 108 343.5 L 108.5 341 Z " /><path fill="#f73b3b" stroke="#f73b3b" stroke-width="1" opacity="0.9254901960784314" d="M 403.5 341 L 404 343.5 L 403 343.5 L 403.5 341 Z " /><path fill="#f73b3b" stroke="#f73b3b" stroke-width="1" opacity="0.9254901960784314" d="M 168.5 346 L 169 348.5 L 168 348.5 L 168.5 346 Z " /><path fill="#f73b3b" stroke="#f73b3b" stroke-width="1" opacity="0.9254901960784314" d="M 343.5 346 L 344 348.5 L 343 348.5 L 343.5 346 Z " /><path fill="#f73b3b" stroke="#f73b3b" stroke-width="1" opacity="0.9254901960784314" d="M 199.5 348 L 200 350.5 L 199 350.5 L 199.5 348 Z " /><path fill="#f73b3b" stroke="#f73b3b" stroke-width="1" opacity="0.9254901960784314" d="M 312.5 348 L 313 350.5 L 312 350.5 L 312.5 348 Z " /><path fill="#f73b3b" stroke="#f73b3b" stroke-width="1" opacity="0.9254901960784314" d="M 109.5 353 L 110 355.5 L 109 355.5 L 109.5 353 Z " /><path fill="#f73b3b" stroke="#f73b3b" stroke-width="1" opacity="0.9254901960784314" d="M 402.5 353 L 403 355.5 L 402 355.5 L 402.5 353 Z " /><path fill="#f73b3b" stroke="#f73b3b" stroke-width="1" opacity="0.9254901960784314" d="M 169.5 358 L 170 360.5 L 169 360.5 L 169.5 358 Z " /><path fill="#f73b3b" stroke="#f73b3b" stroke-width="1" opacity="0.9254901960784314" d="M 342.5 358 L 343 360.5 L 342 360.5 L 342.5 358 Z " /><path fill="#f73b3b" stroke="#f73b3b" stroke-width="1" opacity="0.9254901960784314" d="M 200.5 360 L 201 362.5 L 200 362.5 L 200.5 360 Z " /><path fill="#f73b3b" stroke="#f73b3b" stroke-width="1" opacity="0.9254901960784314" d="M 311.5 360 L 312 362.5 L 311 362.5 L 311.5 360 Z " /><path fill="#f73b3b" stroke="#f73b3b" stroke-width="1" opacity="0.9254901960784314" d="M 170.5 370 L 171 372.5 L 170 372.5 L 170.5 370 Z " /><path fill="#f73b3b" stroke="#f73b3b" stroke-width="1" opacity="0.9254901960784314" d="M 341.5 370 L 342 372.5 L 341 372.5 L 341.5 370 Z " /><path fill="#f73b3b" stroke="#f73b3b" stroke-width="1" opacity="0.9254901960784314" d="M 171.5 382 L 172 384.5 L 171 384.5 L 171.5 382 Z " /><path fill="#f73b3b" stroke="#f73b3b" stroke-width="1" opacity="0.9254901960784314" d="M 340.5 382 L 341 384.5 L 340 384.5 L 340.5 382 Z " /><path fill="#f73b3b" stroke="#f73b3b" stroke-width="1" opacity="0.9254901960784314" d="M 172.5 394 L 173 396.5 L 172 396.5 L 172.5 394 Z " /><path fill="#f73b3b" stroke="#f73b3b" stroke-width="1" opacity="0.9254901960784314" d="M 339.5 394 L 340 396.5 L 339 396.5 L 339.5 394 Z " /><path fill="#f73b3b" stroke="#f73b3b" stroke-width="1" opacity="0.9254901960784314" d="M 173.5 406 L 174 408.5 L 173 408.5 L 173.5 406 Z " /><path fill="#f73b3b" stroke="#f73b3b" stroke-width="1" opacity="0.9254901960784314" d="M 338.5 406 L 339 408.5 L 338 408.5 L 338.5 406 Z " /><path fill="#f73b3b" stroke="#f73b3b" stroke-width="1" opacity="0.9254901960784314" d="M 128.5 494 L 131.5 498 L 128.5 494 Z " /><path fill="#f73b3b" stroke="#f73b3b" stroke-width="1" opacity="0.9254901960784314" d="M 383.5 494 L 380.5 498 L 383.5 494 Z " /><path fill="#f73b3b" stroke="#f73b3b" stroke-width="1" opacity="0.9254901960784314" d="M 134.5 500 L 135.5 502 L 134.5 500 Z " /><path fill="#f73b3b" stroke="#f73b3b" stroke-width="1" opacity="0.9254901960784314" d="M 377.5 500 L 376.5 502 L 377.5 500 Z " /><path fill="#f73b3b" stroke="#f73b3b" stroke-width="1" opacity="0.9254901960784314" d="M 138.5 503 L 139.5 505 L 138.5 503 Z " /><path fill="#f73b3b" stroke="#f73b3b" stroke-width="1" opacity="0.9254901960784314" d="M 373.5 503 L 372.5 505 L 373.5 503 Z " /><path fill="#f73b3b" stroke="#f73b3b" stroke-width="1" opacity="1" d="M 226.5 0 L 285.5 0 L 286.5 1 L 294.5 1 Q 312.6 5.4 322 18.5 Q 327.7 25.8 330 36.5 L 331 60 L 420.5 60 L 431.5 62 L 435.5 64 L 445 72.5 L 450 83.5 L 451 104.5 L 448 113.5 L 444.5 117 L 435.5 120 L 76.5 120 L 67.5 117 L 64 113.5 Q 59.3 105.3 61 90.5 L 63 79.5 L 65 75.5 L 73.5 66 L 80.5 62 L 91.5 60 L 181 60 L 181 45.5 L 184 29.5 Q 189.1 16.6 199.5 9 L 210.5 3 L 226.5 0 Z M 222 30 L 218 32 L 211 41 L 211 60 L 212 60 L 301 60 L 301 41 L 299 37 L 291 30 L 222 30 Z " /><path fill="#f73b3b" stroke="#f73b3b" stroke-width="1" opacity="1" d="M 93 150 L 418.5 150 L 419 150.5 L 419 159.5 L 418 160.5 L 415 208.5 L 414 209.5 L 414 220.5 L 413 221.5 L 413 232.5 L 412 233.5 L 412 244.5 L 411 245.5 L 411 256.5 L 410 257.5 L 410 268.5 L 409 269.5 L 409 280.5 L 408 281.5 L 408 292.5 L 407 293.5 L 407 304.5 L 406 305.5 L 406 316.5 L 405 317.5 L 405 328.5 L 404 329.5 L 404 340.5 L 403 341.5 L 402 365.5 L 401 366.5 L 401 377.5 L 400 378.5 L 400 389.5 L 399 390.5 L 399 401.5 L 398 402.5 L 397 422 L 337 421.5 L 338 420.5 L 338 409.5 L 339 408.5 L 339 397.5 L 340 396.5 L 340 385.5 L 341 384.5 L 341 373.5 L 342 372.5 L 342 361.5 L 343 360.5 L 343 349.5 L 344 348.5 L 344 336.5 L 345 335.5 L 345 324.5 L 346 323.5 L 346 312.5 L 347 311.5 L 347 300.5 L 348 299.5 L 348 288.5 L 349 287.5 L 349 276.5 L 350 275.5 L 350 264.5 L 351 263.5 L 351 252.5 L 352 251.5 L 352 240.5 L 353 239.5 L 353 228.5 L 354 227.5 L 356 191.5 Q 354.5 185 349.5 182 Q 345.2 178.3 335.5 180 L 328 185.5 L 325 193.5 L 325 202.5 L 324 203.5 L 324 214.5 L 323 215.5 L 323 226.5 L 322 227.5 L 322 239.5 L 321 240.5 L 320 263.5 L 319 264.5 L 319 275.5 L 318 276.5 L 318 287.5 L 317 288.5 L 317 299.5 L 316 300.5 L 312 359.5 L 311 360.5 L 311 372.5 L 310 373.5 L 307 420.5 L 305.5 422 L 271.5 422 L 271 421.5 L 271 190.5 L 264.5 182 Q 260.5 178.5 251.5 180 L 243 186.5 L 241 190.5 L 241 422 L 206.5 422 L 205 420.5 L 205 409.5 L 204 408.5 L 204 397.5 L 203 396.5 L 203 385.5 L 202 384.5 L 202 373.5 L 201 372.5 L 201 360.5 L 200 359.5 L 200 348.5 L 199 347.5 L 199 336.5 L 198 335.5 L 198 324.5 L 197 323.5 L 197 312.5 L 196 311.5 L 196 300.5 L 195 299.5 L 195 288.5 L 194 287.5 L 194 276.5 L 193 275.5 L 193 264.5 L 192 263.5 L 192 252.5 L 191 251.5 L 191 240.5 L 190 239.5 L 188 203.5 L 187 202.5 L 186 189.5 L 181.5 183 Q 177.4 178.1 166.5 180 L 158 186.5 Q 154.4 191.9 156 202.5 L 157 203.5 L 158 227.5 L 159 228.5 L 161 263.5 L 162 264.5 L 162 275.5 L 163 276.5 L 163 287.5 L 164 288.5 L 164 299.5 L 165 300.5 L 165 311.5 L 166 312.5 L 166 323.5 L 167 324.5 L 167 335.5 L 168 336.5 L 168 348.5 L 169 349.5 L 169 360.5 L 170 361.5 L 170 372.5 L 171 373.5 L 171 384.5 L 172 385.5 L 172 396.5 L 173 397.5 L 173 408.5 L 174 409.5 L 174 420.5 L 175 421.5 L 115 422 L 93 150 Z " /><path fill="#f73b3b" stroke="#f73b3b" stroke-width="1" opacity="1" d="M 118 452 L 393.5 452 L 394 452.5 L 394 461.5 L 393 462.5 L 392 477.5 L 390 483.5 Q 385.8 493.3 378.5 500 L 363.5 509 L 348.5 512 L 163.5 512 L 148.5 509 L 132 498.5 Q 123.6 490.4 120 477.5 L 118 452 Z " /><path fill="#f73b3b" stroke="#f73b3b" stroke-width="1" opacity="0" d="M 0 0 L 219 0.5 Q 199.3 3.8 190 17.5 L 182 33.5 L 181 38.5 L 181 60 L 85.5 60 Q 73.5 63 67 71.5 L 61 84.5 L 61 108.5 Q 62.5 115 67.5 118 L 72.5 120 L 439.5 120 Q 446 118.5 449 113.5 L 451 108.5 L 451 84.5 Q 448 72.5 439.5 66 L 426.5 60 L 331 60 L 331 38.5 L 328 27.5 Q 322.8 16.2 313.5 9 Q 305.9 2.1 293 0.5 L 512 0 L 512 511.5 L 511.5 512 L 356.5 512 L 356.5 511 L 365.5 509 L 380 500 L 389 487.5 L 392 479.5 L 394 469.5 L 394 458.5 L 395 452 L 117.5 452 Q 116.4 452.1 117 457.5 L 118 458.5 L 118 469.5 L 121 482.5 L 123 487.5 L 132 500 L 146.5 509 L 156 511.5 L 0 512 L 0 0 Z M 92 150 L 93 157 L 93 168 L 94 169 L 94 180 L 95 181 L 95 192 L 96 193 L 97 217 L 98 218 L 98 229 L 99 230 L 99 241 L 100 242 L 100 253 L 101 254 L 101 265 L 102 266 L 102 277 L 103 278 L 103 289 L 104 290 L 104 301 L 105 302 L 105 313 L 106 314 L 106 325 L 107 326 L 107 337 L 108 338 L 108 349 L 109 350 L 109 361 L 110 362 L 113 410 L 114 411 L 114 422 L 115 422 L 175 422 L 174 402 L 173 401 L 173 390 L 172 389 L 172 378 L 171 377 L 171 366 L 170 365 L 170 354 L 169 353 L 168 329 L 167 328 L 167 317 L 166 316 L 166 305 L 165 304 L 165 293 L 164 292 L 164 281 L 163 280 L 163 269 L 162 268 L 162 257 L 161 256 L 161 245 L 160 244 L 160 233 L 159 232 L 158 208 L 157 207 L 157 191 L 159 187 Q 162 181 170 180 L 174 180 L 181 183 L 185 189 L 187 200 L 189 236 L 190 237 L 190 248 L 191 249 L 191 260 L 192 261 L 192 272 L 193 273 L 193 284 L 194 285 L 194 296 L 195 297 L 195 308 L 196 309 L 196 320 L 197 321 L 197 332 L 198 333 L 198 344 L 199 345 L 199 356 L 200 357 L 200 369 L 201 370 L 201 381 L 202 382 L 202 393 L 203 394 L 203 405 L 204 406 L 204 417 L 205 418 Q 204 422 206 422 L 241 422 L 241 193 L 243 188 Q 246 182 254 180 Q 260 179 264 182 Q 269 185 271 193 L 271 422 L 272 422 L 307 422 L 308 417 L 308 406 L 309 405 L 309 394 L 310 393 L 310 382 L 311 381 L 311 370 L 312 369 L 315 321 L 316 320 L 316 309 L 317 308 L 317 297 L 318 296 L 318 285 L 319 284 L 319 273 L 320 272 L 320 261 L 321 260 L 321 249 L 322 248 L 322 237 L 323 236 L 325 200 Q 328 198 326 192 L 329 186 L 339 180 L 349 182 L 355 191 L 355 207 L 354 208 L 354 219 L 353 220 L 353 232 L 352 233 L 352 244 L 351 245 L 351 256 L 350 257 L 350 268 L 349 269 L 349 280 L 348 281 L 348 292 L 347 293 L 347 304 L 346 305 L 346 316 L 345 317 L 345 328 L 344 329 L 344 340 L 343 341 L 343 353 L 342 354 L 342 365 L 341 366 L 341 377 L 340 378 L 340 389 L 339 390 L 339 401 L 338 402 L 338 413 L 337 414 L 337 422 L 338 422 L 398 422 L 401 375 L 402 374 L 402 362 L 403 361 L 403 350 L 404 349 L 404 338 L 405 337 L 405 326 L 406 325 L 406 314 L 407 313 L 407 302 L 408 301 L 408 290 L 409 289 L 409 278 L 410 277 L 410 266 L 411 265 L 411 254 L 412 253 L 412 242 L 413 241 L 413 230 L 414 229 L 414 218 L 415 217 L 415 206 L 416 205 L 417 181 L 418 180 L 418 169 L 419 168 L 419 157 L 420 156 Q 421 150 420 150 L 92 150 Z " /><path fill="#f73b3b" stroke="#f73b3b" stroke-width="1" opacity="0" d="M 223.5 30 L 288.5 30 Q 295.7 31.8 299 37.5 L 301 42.5 L 301 60 L 211.5 60 L 211 59.5 L 211 42.5 Q 212.8 35.3 218.5 32 L 223.5 30 Z " /><path fill="#f73b3b" stroke="#f73b3b" stroke-width="1" opacity="0.5803921568627451" d="M 219.5 0 L 224 0.5 L 219.5 1 L 219.5 0 Z " /><path fill="#f73b3b" stroke="#f73b3b" stroke-width="1" opacity="0.5803921568627451" d="M 289.5 0 L 293 0.5 L 289.5 1 L 289.5 0 Z " /><path fill="#f73b3b" stroke="#f73b3b" stroke-width="1" opacity="0.5803921568627451" d="M 198.5 9 L 196.5 12 L 198.5 9 Z " /><path fill="#f73b3b" stroke="#f73b3b" stroke-width="1" opacity="0.5803921568627451" d="M 313.5 9 L 315.5 12 L 313.5 9 Z " /><path fill="#f73b3b" stroke="#f73b3b" stroke-width="1" opacity="0.5803921568627451" d="M 192.5 15 L 190.5 18 L 192.5 15 Z " /><path fill="#f73b3b" stroke="#f73b3b" stroke-width="1" opacity="0.5803921568627451" d="M 319.5 15 L 321.5 18 L 319.5 15 Z " /><path fill="#f73b3b" stroke="#f73b3b" stroke-width="1" opacity="0.5803921568627451" d="M 217.5 32 L 213.5 37 L 217.5 32 Z " /><path fill="#f73b3b" stroke="#f73b3b" stroke-width="1" opacity="0.5803921568627451" d="M 294.5 32 L 298.5 37 L 294.5 32 Z " /><path fill="#f73b3b" stroke="#f73b3b" stroke-width="1" opacity="0.5803921568627451" d="M 181.5 38 L 182 41.5 L 181 41.5 L 181.5 38 Z " /><path fill="#f73b3b" stroke="#f73b3b" stroke-width="1" opacity="0.5803921568627451" d="M 330.5 38 L 331 41.5 L 330 41.5 L 330.5 38 Z " /><path fill="#f73b3b" stroke="#f73b3b" stroke-width="1" opacity="0.5803921568627451" d="M 85.5 60 L 89 60.5 L 85.5 61 L 85.5 60 Z " /><path fill="#f73b3b" stroke="#f73b3b" stroke-width="1" opacity="0.5803921568627451" d="M 423.5 60 L 427 60.5 L 423.5 61 L 423.5 60 Z " /><path fill="#f73b3b" stroke="#f73b3b" stroke-width="1" opacity="0.5803921568627451" d="M 72.5 66 L 71.5 68 L 72.5 66 Z " /><path fill="#f73b3b" stroke="#f73b3b" stroke-width="1" opacity="0.5803921568627451" d="M 439.5 66 L 440.5 68 L 439.5 66 Z " /><path fill="#f73b3b" stroke="#f73b3b" stroke-width="1" opacity="0.5803921568627451" d="M 68.5 70 L 67.5 72 L 68.5 70 Z " /><path fill="#f73b3b" stroke="#f73b3b" stroke-width="1" opacity="0.5803921568627451" d="M 443.5 70 L 444.5 72 L 443.5 70 Z " /><path fill="#f73b3b" stroke="#f73b3b" stroke-width="1" opacity="0.5803921568627451" d="M 61.5 84 L 62 87.5 L 61 87.5 L 61.5 84 Z " /><path fill="#f73b3b" stroke="#f73b3b" stroke-width="1" opacity="0.5803921568627451" d="M 450.5 84 L 451 87.5 L 450 87.5 L 450.5 84 Z " /><path fill="#f73b3b" stroke="#f73b3b" stroke-width="1" opacity="0.5803921568627451" d="M 63.5 113 L 67.5 118 L 63.5 113 Z " /><path fill="#f73b3b" stroke="#f73b3b" stroke-width="1" opacity="0.5803921568627451" d="M 448.5 113 L 444.5 118 L 448.5 113 Z " /><path fill="#f73b3b" stroke="#f73b3b" stroke-width="1" opacity="0.5803921568627451" d="M 92.5 151 L 93 155.5 L 92 155.5 L 92.5 151 Z " /><path fill="#f73b3b" stroke="#f73b3b" stroke-width="1" opacity="0.5803921568627451" d="M 419.5 151 L 420 155.5 L 419 155.5 L 419.5 151 Z " /><path fill="#f73b3b" stroke="#f73b3b" stroke-width="1" opacity="0.5803921568627451" d="M 93.5 163 L 94 167.5 L 93 167.5 L 93.5 163 Z " /><path fill="#f73b3b" stroke="#f73b3b" stroke-width="1" opacity="0.5803921568627451" d="M 418.5 163 L 419 167.5 L 418 167.5 L 418.5 163 Z " /><path fill="#f73b3b" stroke="#f73b3b" stroke-width="1" opacity="0.5803921568627451" d="M 94.5 175 L 95 179.5 L 94 179.5 L 94.5 175 Z " /><path fill="#f73b3b" stroke="#f73b3b" stroke-width="1" opacity="0.5803921568627451" d="M 417.5 175 L 418 179.5 L 417 179.5 L 417.5 175 Z " /><path fill="#f73b3b" stroke="#f73b3b" stroke-width="1" opacity="0.5803921568627451" d="M 247.5 182 L 243.5 187 L 247.5 182 Z " /><path fill="#f73b3b" stroke="#f73b3b" stroke-width="1" opacity="0.5803921568627451" d="M 264.5 182 L 268.5 187 L 264.5 182 Z " /><path fill="#f73b3b" stroke="#f73b3b" stroke-width="1" opacity="0.5803921568627451" d="M 161.5 183 L 159.5 186 L 161.5 183 Z " /><path fill="#f73b3b" stroke="#f73b3b" stroke-width="1" opacity="0.5803921568627451" d="M 350.5 183 L 352.5 186 L 350.5 183 Z " /><path fill="#f73b3b" stroke="#f73b3b" stroke-width="1" opacity="0.5803921568627451" d="M 183.5 186 L 184.5 188 L 183.5 186 Z " /><path fill="#f73b3b" stroke="#f73b3b" stroke-width="1" opacity="0.5803921568627451" d="M 328.5 186 L 327.5 188 L 328.5 186 Z " /><path fill="#f73b3b" stroke="#f73b3b" stroke-width="1" opacity="0.5803921568627451" d="M 95.5 187 L 96 191.5 L 95 191.5 L 95.5 187 Z " /><path fill="#f73b3b" stroke="#f73b3b" stroke-width="1" opacity="0.5803921568627451" d="M 416.5 187 L 417 191.5 L 416 191.5 L 416.5 187 Z " /><path fill="#f73b3b" stroke="#f73b3b" stroke-width="1" opacity="0.5803921568627451" d="M 156.5 192 L 157 200.5 L 156 200.5 L 156.5 192 Z " /><path fill="#f73b3b" stroke="#f73b3b" stroke-width="1" opacity="0.5803921568627451" d="M 355.5 192 L 356 200.5 L 355 200.5 L 355.5 192 Z " /><path fill="#f73b3b" stroke="#f73b3b" stroke-width="1" opacity="0.5803921568627451" d="M 186.5 194 L 187 198.5 L 186 198.5 L 186.5 194 Z " /><path fill="#f73b3b" stroke="#f73b3b" stroke-width="1" opacity="0.5803921568627451" d="M 325.5 194 L 326 198.5 L 325 198.5 L 325.5 194 Z " /><path fill="#f73b3b" stroke="#f73b3b" stroke-width="1" opacity="0.5803921568627451" d="M 96.5 199 L 97 204.5 L 96 204.5 L 96.5 199 Z " /><path fill="#f73b3b" stroke="#f73b3b" stroke-width="1" opacity="0.5803921568627451" d="M 415.5 199 L 416 204.5 L 415 204.5 L 415.5 199 Z " /><path fill="#f73b3b" stroke="#f73b3b" stroke-width="1" opacity="0.5803921568627451" d="M 187.5 206 L 188 210.5 L 187 210.5 L 187.5 206 Z " /><path fill="#f73b3b" stroke="#f73b3b" stroke-width="1" opacity="0.5803921568627451" d="M 324.5 206 L 325 210.5 L 324 210.5 L 324.5 206 Z " /><path fill="#f73b3b" stroke="#f73b3b" stroke-width="1" opacity="0.5803921568627451" d="M 157.5 207 L 158 212.5 L 157 212.5 L 157.5 207 Z " /><path fill="#f73b3b" stroke="#f73b3b" stroke-width="1" opacity="0.5803921568627451" d="M 354.5 207 L 355 212.5 L 354 212.5 L 354.5 207 Z " /><path fill="#f73b3b" stroke="#f73b3b" stroke-width="1" opacity="0.5803921568627451" d="M 97.5 211 L 98 216.5 L 97 216.5 L 97.5 211 Z " /><path fill="#f73b3b" stroke="#f73b3b" stroke-width="1" opacity="0.5803921568627451" d="M 414.5 211 L 415 216.5 L 414 216.5 L 414.5 211 Z " /><path fill="#f73b3b" stroke="#f73b3b" stroke-width="1" opacity="0.5803921568627451" d="M 188.5 218 L 189 222.5 L 188 222.5 L 188.5 218 Z " /><path fill="#f73b3b" stroke="#f73b3b" stroke-width="1" opacity="0.5803921568627451" d="M 323.5 218 L 324 222.5 L 323 222.5 L 323.5 218 Z " /><path fill="#f73b3b" stroke="#f73b3b" stroke-width="1" opacity="0.5803921568627451" d="M 158.5 219 L 159 224.5 L 158 224.5 L 158.5 219 Z " /><path fill="#f73b3b" stroke="#f73b3b" stroke-width="1" opacity="0.5803921568627451" d="M 353.5 219 L 354 224.5 L 353 224.5 L 353.5 219 Z " /><path fill="#f73b3b" stroke="#f73b3b" stroke-width="1" opacity="0.5803921568627451" d="M 98.5 223 L 99 228.5 L 98 228.5 L 98.5 223 Z " /><path fill="#f73b3b" stroke="#f73b3b" stroke-width="1" opacity="0.5803921568627451" d="M 413.5 223 L 414 228.5 L 413 228.5 L 413.5 223 Z " /><path fill="#f73b3b" stroke="#f73b3b" stroke-width="1" opacity="0.5803921568627451" d="M 189.5 230 L 190 235.5 L 189 235.5 L 189.5 230 Z " /><path fill="#f73b3b" stroke="#f73b3b" stroke-width="1" opacity="0.5803921568627451" d="M 322.5 230 L 323 235.5 L 322 235.5 L 322.5 230 Z " /><path fill="#f73b3b" stroke="#f73b3b" stroke-width="1" opacity="0.5803921568627451" d="M 159.5 232 L 160 236.5 L 159 236.5 L 159.5 232 Z " /><path fill="#f73b3b" stroke="#f73b3b" stroke-width="1" opacity="0.5803921568627451" d="M 352.5 232 L 353 236.5 L 352 236.5 L 352.5 232 Z " /><path fill="#f73b3b" stroke="#f73b3b" stroke-width="1" opacity="0.5803921568627451" d="M 99.5 235 L 100 240.5 L 99 240.5 L 99.5 235 Z " /><path fill="#f73b3b" stroke="#f73b3b" stroke-width="1" opacity="0.5803921568627451" d="M 412.5 235 L 413 240.5 L 412 240.5 L 412.5 235 Z " /><path fill="#f73b3b" stroke="#f73b3b" stroke-width="1" opacity="0.5803921568627451" d="M 190.5 242 L 191 247.5 L 190 247.5 L 190.5 242 Z " /><path fill="#f73b3b" stroke="#f73b3b" stroke-width="1" opacity="0.5803921568627451" d="M 321.5 242 L 322 247.5 L 321 247.5 L 321.5 242 Z " /><path fill="#f73b3b" stroke="#f73b3b" stroke-width="1" opacity="0.5803921568627451" d="M 160.5 244 L 161 248.5 L 160 248.5 L 160.5 244 Z " /><path fill="#f73b3b" stroke="#f73b3b" stroke-width="1" opacity="0.5803921568627451" d="M 351.5 244 L 352 248.5 L 351 248.5 L 351.5 244 Z " /><path fill="#f73b3b" stroke="#f73b3b" stroke-width="1" opacity="0.5803921568627451" d="M 100.5 247 L 101 252.5 L 100 252.5 L 100.5 247 Z " /><path fill="#f73b3b" stroke="#f73b3b" stroke-width="1" opacity="0.5803921568627451" d="M 411.5 247 L 412 252.5 L 411 252.5 L 411.5 247 Z " /><path fill="#f73b3b" stroke="#f73b3b" stroke-width="1" opacity="0.5803921568627451" d="M 191.5 254 L 192 259.5 L 191 259.5 L 191.5 254 Z " /><path fill="#f73b3b" stroke="#f73b3b" stroke-width="1" opacity="0.5803921568627451" d="M 320.5 254 L 321 259.5 L 320 259.5 L 320.5 254 Z " /><path fill="#f73b3b" stroke="#f73b3b" stroke-width="1" opacity="0.5803921568627451" d="M 161.5 256 L 162 260.5 L 161 260.5 L 161.5 256 Z " /><path fill="#f73b3b" stroke="#f73b3b" stroke-width="1" opacity="0.5803921568627451" d="M 350.5 256 L 351 260.5 L 350 260.5 L 350.5 256 Z " /><path fill="#f73b3b" stroke="#f73b3b" stroke-width="1" opacity="0.5803921568627451" d="M 101.5 259 L 102 264.5 L 101 264.5 L 101.5 259 Z " /><path fill="#f73b3b" stroke="#f73b3b" stroke-width="1" opacity="0.5803921568627451" d="M 410.5 259 L 411 264.5 L 410 264.5 L 410.5 259 Z " /><path fill="#f73b3b" stroke="#f73b3b" stroke-width="1" opacity="0.5803921568627451" d="M 192.5 266 L 193 271.5 L 192 271.5 L 192.5 266 Z " /><path fill="#f73b3b" stroke="#f73b3b" stroke-width="1" opacity="0.5803921568627451" d="M 319.5 266 L 320 271.5 L 319 271.5 L 319.5 266 Z " /><path fill="#f73b3b" stroke="#f73b3b" stroke-width="1" opacity="0.5803921568627451" d="M 162.5 268 L 163 272.5 L 162 272.5 L 162.5 268 Z " /><path fill="#f73b3b" stroke="#f73b3b" stroke-width="1" opacity="0.5803921568627451" d="M 349.5 268 L 350 272.5 L 349 272.5 L 349.5 268 Z " /><path fill="#f73b3b" stroke="#f73b3b" stroke-width="1" opacity="0.5803921568627451" d="M 102.5 271 L 103 276.5 L 102 276.5 L 102.5 271 Z " /><path fill="#f73b3b" stroke="#f73b3b" stroke-width="1" opacity="0.5803921568627451" d="M 409.5 271 L 410 276.5 L 409 276.5 L 409.5 271 Z " /><path fill="#f73b3b" stroke="#f73b3b" stroke-width="1" opacity="0.5803921568627451" d="M 193.5 278 L 194 283.5 L 193 283.5 L 193.5 278 Z " /><path fill="#f73b3b" stroke="#f73b3b" stroke-width="1" opacity="0.5803921568627451" d="M 318.5 278 L 319 283.5 L 318 283.5 L 318.5 278 Z " /><path fill="#f73b3b" stroke="#f73b3b" stroke-width="1" opacity="0.5803921568627451" d="M 163.5 280 L 164 284.5 L 163 284.5 L 163.5 280 Z " /><path fill="#f73b3b" stroke="#f73b3b" stroke-width="1" opacity="0.5803921568627451" d="M 348.5 280 L 349 284.5 L 348 284.5 L 348.5 280 Z " /><path fill="#f73b3b" stroke="#f73b3b" stroke-width="1" opacity="0.5803921568627451" d="M 103.5 284 L 104 288.5 L 103 288.5 L 103.5 284 Z " /><path fill="#f73b3b" stroke="#f73b3b" stroke-width="1" opacity="0.5803921568627451" d="M 408.5 284 L 409 288.5 L 408 288.5 L 408.5 284 Z " /><path fill="#f73b3b" stroke="#f73b3b" stroke-width="1" opacity="0.5803921568627451" d="M 194.5 290 L 195 295.5 L 194 295.5 L 194.5 290 Z " /><path fill="#f73b3b" stroke="#f73b3b" stroke-width="1" opacity="0.5803921568627451" d="M 317.5 290 L 318 295.5 L 317 295.5 L 317.5 290 Z " /><path fill="#f73b3b" stroke="#f73b3b" stroke-width="1" opacity="0.5803921568627451" d="M 164.5 292 L 165 297.5 L 164 297.5 L 164.5 292 Z " /><path fill="#f73b3b" stroke="#f73b3b" stroke-width="1" opacity="0.5803921568627451" d="M 347.5 292 L 348 297.5 L 347 297.5 L 347.5 292 Z " /><path fill="#f73b3b" stroke="#f73b3b" stroke-width="1" opacity="0.5803921568627451" d="M 104.5 296 L 105 300.5 L 104 300.5 L 104.5 296 Z " /><path fill="#f73b3b" stroke="#f73b3b" stroke-width="1" opacity="0.5803921568627451" d="M 407.5 296 L 408 300.5 L 407 300.5 L 407.5 296 Z " /><path fill="#f73b3b" stroke="#f73b3b" stroke-width="1" opacity="0.5803921568627451" d="M 195.5 303 L 196 307.5 L 195 307.5 L 195.5 303 Z " /><path fill="#f73b3b" stroke="#f73b3b" stroke-width="1" opacity="0.5803921568627451" d="M 316.5 303 L 317 307.5 L 316 307.5 L 316.5 303 Z " /><path fill="#f73b3b" stroke="#f73b3b" stroke-width="1" opacity="0.5803921568627451" d="M 165.5 304 L 166 309.5 L 165 309.5 L 165.5 304 Z " /><path fill="#f73b3b" stroke="#f73b3b" stroke-width="1" opacity="0.5803921568627451" d="M 346.5 304 L 347 309.5 L 346 309.5 L 346.5 304 Z " /><path fill="#f73b3b" stroke="#f73b3b" stroke-width="1" opacity="0.5803921568627451" d="M 105.5 308 L 106 312.5 L 105 312.5 L 105.5 308 Z " /><path fill="#f73b3b" stroke="#f73b3b" stroke-width="1" opacity="0.5803921568627451" d="M 406.5 308 L 407 312.5 L 406 312.5 L 406.5 308 Z " /><path fill="#f73b3b" stroke="#f73b3b" stroke-width="1" opacity="0.5803921568627451" d="M 196.5 315 L 197 319.5 L 196 319.5 L 196.5 315 Z " /><path fill="#f73b3b" stroke="#f73b3b" stroke-width="1" opacity="0.5803921568627451" d="M 315.5 315 L 316 319.5 L 315 319.5 L 315.5 315 Z " /><path fill="#f73b3b" stroke="#f73b3b" stroke-width="1" opacity="0.5803921568627451" d="M 166.5 316 L 167 321.5 L 166 321.5 L 166.5 316 Z " /><path fill="#f73b3b" stroke="#f73b3b" stroke-width="1" opacity="0.5803921568627451" d="M 345.5 316 L 346 321.5 L 345 321.5 L 345.5 316 Z " /><path fill="#f73b3b" stroke="#f73b3b" stroke-width="1" opacity="0.5803921568627451" d="M 106.5 320 L 107 324.5 L 106 324.5 L 106.5 320 Z " /><path fill="#f73b3b" stroke="#f73b3b" stroke-width="1" opacity="0.5803921568627451" d="M 405.5 320 L 406 324.5 L 405 324.5 L 405.5 320 Z " /><path fill="#f73b3b" stroke="#f73b3b" stroke-width="1" opacity="0.5803921568627451" d="M 197.5 327 L 198 331.5 L 197 331.5 L 197.5 327 Z " /><path fill="#f73b3b" stroke="#f73b3b" stroke-width="1" opacity="0.5803921568627451" d="M 314.5 327 L 315 331.5 L 314 331.5 L 314.5 327 Z " /><path fill="#f73b3b" stroke="#f73b3b" stroke-width="1" opacity="0.5803921568627451" d="M 167.5 328 L 168 333.5 L 167 333.5 L 167.5 328 Z " /><path fill="#f73b3b" stroke="#f73b3b" stroke-width="1" opacity="0.5803921568627451" d="M 344.5 328 L 345 333.5 L 344 333.5 L 344.5 328 Z " /><path fill="#f73b3b" stroke="#f73b3b" stroke-width="1" opacity="0.5803921568627451" d="M 107.5 332 L 108 336.5 L 107 336.5 L 107.5 332 Z " /><path fill="#f73b3b" stroke="#f73b3b" stroke-width="1" opacity="0.5803921568627451" d="M 404.5 332 L 405 336.5 L 404 336.5 L 404.5 332 Z " /><path fill="#f73b3b" stroke="#f73b3b" stroke-width="1" opacity="0.5803921568627451" d="M 198.5 339 L 199 343.5 L 198 343.5 L 198.5 339 Z " /><path fill="#f73b3b" stroke="#f73b3b" stroke-width="1" opacity="0.5803921568627451" d="M 313.5 339 L 314 343.5 L 313 343.5 L 313.5 339 Z " /><path fill="#f73b3b" stroke="#f73b3b" stroke-width="1" opacity="0.5803921568627451" d="M 168.5 340 L 169 345.5 L 168 345.5 L 168.5 340 Z " /><path fill="#f73b3b" stroke="#f73b3b" stroke-width="1" opacity="0.5803921568627451" d="M 343.5 340 L 344 345.5 L 343 345.5 L 343.5 340 Z " /><path fill="#f73b3b" stroke="#f73b3b" stroke-width="1" opacity="0.5803921568627451" d="M 108.5 344 L 109 348.5 L 108 348.5 L 108.5 344 Z " /><path fill="#f73b3b" stroke="#f73b3b" stroke-width="1" opacity="0.5803921568627451" d="M 403.5 344 L 404 348.5 L 403 348.5 L 403.5 344 Z " /><path fill="#f73b3b" stroke="#f73b3b" stroke-width="1" opacity="0.5803921568627451" d="M 199.5 351 L 200 355.5 L 199 355.5 L 199.5 351 Z " /><path fill="#f73b3b" stroke="#f73b3b" stroke-width="1" opacity="0.5803921568627451" d="M 312.5 351 L 313 355.5 L 312 355.5 L 312.5 351 Z " /><path fill="#f73b3b" stroke="#f73b3b" stroke-width="1" opacity="0.5803921568627451" d="M 169.5 353 L 170 357.5 L 169 357.5 L 169.5 353 Z " /><path fill="#f73b3b" stroke="#f73b3b" stroke-width="1" opacity="0.5803921568627451" d="M 342.5 353 L 343 357.5 L 342 357.5 L 342.5 353 Z " /><path fill="#f73b3b" stroke="#f73b3b" stroke-width="1" opacity="0.5803921568627451" d="M 109.5 356 L 110 360.5 L 109 360.5 L 109.5 356 Z " /><path fill="#f73b3b" stroke="#f73b3b" stroke-width="1" opacity="0.5803921568627451" d="M 402.5 356 L 403 360.5 L 402 360.5 L 402.5 356 Z " /><path fill="#f73b3b" stroke="#f73b3b" stroke-width="1" opacity="0.5803921568627451" d="M 200.5 363 L 201 368.5 L 200 368.5 L 200.5 363 Z " /><path fill="#f73b3b" stroke="#f73b3b" stroke-width="1" opacity="0.5803921568627451" d="M 311.5 363 L 312 368.5 L 311 368.5 L 311.5 363 Z " /><path fill="#f73b3b" stroke="#f73b3b" stroke-width="1" opacity="0.5803921568627451" d="M 170.5 365 L 171 369.5 L 170 369.5 L 170.5 365 Z " /><path fill="#f73b3b" stroke="#f73b3b" stroke-width="1" opacity="0.5803921568627451" d="M 341.5 365 L 342 369.5 L 341 369.5 L 341.5 365 Z " /><path fill="#f73b3b" stroke="#f73b3b" stroke-width="1" opacity="0.5803921568627451" d="M 110.5 368 L 111 373.5 L 110 373.5 L 110.5 368 Z " /><path fill="#f73b3b" stroke="#f73b3b" stroke-width="1" opacity="0.5803921568627451" d="M 401.5 368 L 402 373.5 L 401 373.5 L 401.5 368 Z " /><path fill="#f73b3b" stroke="#f73b3b" stroke-width="1" opacity="0.5803921568627451" d="M 201.5 375 L 202 380.5 L 201 380.5 L 201.5 375 Z " /><path fill="#f73b3b" stroke="#f73b3b" stroke-width="1" opacity="0.5803921568627451" d="M 310.5 375 L 311 380.5 L 310 380.5 L 310.5 375 Z " /><path fill="#f73b3b" stroke="#f73b3b" stroke-width="1" opacity="0.5803921568627451" d="M 171.5 377 L 172 381.5 L 171 381.5 L 171.5 377 Z " /><path fill="#f73b3b" stroke="#f73b3b" stroke-width="1" opacity="0.5803921568627451" d="M 340.5 377 L 341 381.5 L 340 381.5 L 340.5 377 Z " /><path fill="#f73b3b" stroke="#f73b3b" stroke-width="1" opacity="0.5803921568627451" d="M 111.5 380 L 112 385.5 L 111 385.5 L 111.5 380 Z " /><path fill="#f73b3b" stroke="#f73b3b" stroke-width="1" opacity="0.5803921568627451" d="M 400.5 380 L 401 385.5 L 400 385.5 L 400.5 380 Z " /><path fill="#f73b3b" stroke="#f73b3b" stroke-width="1" opacity="0.5803921568627451" d="M 202.5 387 L 203 392.5 L 202 392.5 L 202.5 387 Z " /><path fill="#f73b3b" stroke="#f73b3b" stroke-width="1" opacity="0.5803921568627451" d="M 309.5 387 L 310 392.5 L 309 392.5 L 309.5 387 Z " /><path fill="#f73b3b" stroke="#f73b3b" stroke-width="1" opacity="0.5803921568627451" d="M 172.5 389 L 173 393.5 L 172 393.5 L 172.5 389 Z " /><path fill="#f73b3b" stroke="#f73b3b" stroke-width="1" opacity="0.5803921568627451" d="M 339.5 389 L 340 393.5 L 339 393.5 L 339.5 389 Z " /><path fill="#f73b3b" stroke="#f73b3b" stroke-width="1" opacity="0.5803921568627451" d="M 112.5 392 L 113 397.5 L 112 397.5 L 112.5 392 Z " /><path fill="#f73b3b" stroke="#f73b3b" stroke-width="1" opacity="0.5803921568627451" d="M 399.5 392 L 400 397.5 L 399 397.5 L 399.5 392 Z " /><path fill="#f73b3b" stroke="#f73b3b" stroke-width="1" opacity="0.5803921568627451" d="M 203.5 399 L 204 404.5 L 203 404.5 L 203.5 399 Z " /><path fill="#f73b3b" stroke="#f73b3b" stroke-width="1" opacity="0.5803921568627451" d="M 308.5 399 L 309 404.5 L 308 404.5 L 308.5 399 Z " /><path fill="#f73b3b" stroke="#f73b3b" stroke-width="1" opacity="0.5803921568627451" d="M 173.5 401 L 174 405.5 L 173 405.5 L 173.5 401 Z " /><path fill="#f73b3b" stroke="#f73b3b" stroke-width="1" opacity="0.5803921568627451" d="M 338.5 401 L 339 405.5 L 338 405.5 L 338.5 401 Z " /><path fill="#f73b3b" stroke="#f73b3b" stroke-width="1" opacity="0.5803921568627451" d="M 113.5 404 L 114 409.5 L 113 409.5 L 113.5 404 Z " /><path fill="#f73b3b" stroke="#f73b3b" stroke-width="1" opacity="0.5803921568627451" d="M 398.5 404 L 399 409.5 L 398 409.5 L 398.5 404 Z " /><path fill="#f73b3b" stroke="#f73b3b" stroke-width="1" opacity="0.5803921568627451" d="M 204.5 411 L 205 416.5 L 204 416.5 L 204.5 411 Z " /><path fill="#f73b3b" stroke="#f73b3b" stroke-width="1" opacity="0.5803921568627451" d="M 307.5 411 L 308 416.5 L 307 416.5 L 307.5 411 Z " /><path fill="#f73b3b" stroke="#f73b3b" stroke-width="1" opacity="0.5803921568627451" d="M 174.5 413 L 175 418.5 L 174 418.5 L 174.5 413 Z " /><path fill="#f73b3b" stroke="#f73b3b" stroke-width="1" opacity="0.5803921568627451" d="M 337.5 413 L 338 418.5 L 337 418.5 L 337.5 413 Z " /><path fill="#f73b3b" stroke="#f73b3b" stroke-width="1" opacity="0.5803921568627451" d="M 114.5 416 L 115 421.5 L 114 421.5 L 114.5 416 Z " /><path fill="#f73b3b" stroke="#f73b3b" stroke-width="1" opacity="0.5803921568627451" d="M 397.5 416 L 398 421.5 L 397 421.5 L 397.5 416 Z " /><path fill="#f73b3b" stroke="#f73b3b" stroke-width="1" opacity="0.5803921568627451" d="M 117.5 452 L 118 457.5 L 117 457.5 L 117.5 452 Z " /><path fill="#f73b3b" stroke="#f73b3b" stroke-width="1" opacity="0.5803921568627451" d="M 394.5 452 L 395 457.5 L 394 457.5 L 394.5 452 Z " /><path fill="#f73b3b" stroke="#f73b3b" stroke-width="1" opacity="0.5803921568627451" d="M 118.5 464 L 119 469.5 L 118 469.5 L 118.5 464 Z " /><path fill="#f73b3b" stroke="#f73b3b" stroke-width="1" opacity="0.5803921568627451" d="M 393.5 464 L 394 469.5 L 393 469.5 L 393.5 464 Z " /><path fill="#f73b3b" stroke="#f73b3b" stroke-width="1" opacity="0.5803921568627451" d="M 119.5 473 L 120 475.5 L 119 475.5 L 119.5 473 Z " /><path fill="#f73b3b" stroke="#f73b3b" stroke-width="1" opacity="0.5803921568627451" d="M 392.5 473 L 393 475.5 L 392 475.5 L 392.5 473 Z " /><path fill="#f73b3b" stroke="#f73b3b" stroke-width="1" opacity="0.5803921568627451" d="M 123.5 487 L 124.5 489 L 123.5 487 Z " /><path fill="#f73b3b" stroke="#f73b3b" stroke-width="1" opacity="0.5803921568627451" d="M 388.5 487 L 387.5 489 L 388.5 487 Z " /><path fill="#f73b3b" stroke="#f73b3b" stroke-width="1" opacity="0.5803921568627451" d="M 136.5 502 L 137.5 504 L 136.5 502 Z " /><path fill="#f73b3b" stroke="#f73b3b" stroke-width="1" opacity="0.5803921568627451" d="M 375.5 502 L 374.5 504 L 375.5 502 Z " /><path fill="#f73b3b" stroke="#f73b3b" stroke-width="1" opacity="0.5803921568627451" d="M 156.5 511 L 161 511.5 L 156.5 512 L 156.5 511 Z " /><path fill="#f73b3b" stroke="#f73b3b" stroke-width="1" opacity="0.5803921568627451" d="M 351.5 511 L 356 511.5 L 351.5 512 L 351.5 511 Z " /></svg>