<svg fill="#000000" width="512" height="512" version="1.1" xmlns="http://www.w3.org/2000/svg" desc="Created with imagetracer.js version 1.2.6" ><path fill="#000000" stroke="#000000" stroke-width="1" opacity="0.8235294117647058" d="M 156.5 0 L 168 0.5 L 156.5 1 L 156.5 0 Z " /><path fill="#000000" stroke="#000000" stroke-width="1" opacity="0.8235294117647058" d="M 171.5 0 L 182 0.5 L 171.5 1 L 171.5 0 Z " /><path fill="#000000" stroke="#000000" stroke-width="1" opacity="0.8235294117647058" d="M 147.5 1 L 151 1.5 L 147.5 2 L 147.5 1 Z " /><path fill="#000000" stroke="#000000" stroke-width="1" opacity="0.8235294117647058" d="M 188.5 1 L 192 1.5 L 188.5 2 L 188.5 1 Z " /><path fill="#000000" stroke="#000000" stroke-width="1" opacity="0.8235294117647058" d="M 140.5 2 L 143 2.5 L 140.5 3 L 140.5 2 Z " /><path fill="#000000" stroke="#000000" stroke-width="1" opacity="0.8235294117647058" d="M 195.5 2 L 198 2.5 L 195.5 3 L 195.5 2 Z " /><path fill="#000000" stroke="#000000" stroke-width="1" opacity="0.8235294117647058" d="M 201.5 3 L 204 3.5 L 201.5 4 L 201.5 3 Z " /><path fill="#000000" stroke="#000000" stroke-width="1" opacity="0.8235294117647058" d="M 130.5 4 L 133 4.5 L 130.5 5 L 130.5 4 Z " /><path fill="#000000" stroke="#000000" stroke-width="1" opacity="0.8235294117647058" d="M 88.5 20 L 87.5 22 L 88.5 20 Z " /><path fill="#000000" stroke="#000000" stroke-width="1" opacity="0.8235294117647058" d="M 255.5 23 L 256.5 25 L 255.5 23 Z " /><path fill="#000000" stroke="#000000" stroke-width="1" opacity="0.8235294117647058" d="M 81.5 24 L 80.5 26 L 81.5 24 Z " /><path fill="#000000" stroke="#000000" stroke-width="1" opacity="0.8235294117647058" d="M 258.5 25 L 259.5 27 L 258.5 25 Z " /><path fill="#000000" stroke="#000000" stroke-width="1" opacity="0.8235294117647058" d="M 78.5 26 L 77.5 28 L 78.5 26 Z " /><path fill="#000000" stroke="#000000" stroke-width="1" opacity="0.8235294117647058" d="M 75.5 28 L 74.5 30 L 75.5 28 Z " /><path fill="#000000" stroke="#000000" stroke-width="1" opacity="0.8235294117647058" d="M 264.5 29 L 265.5 31 L 264.5 29 Z " /><path fill="#000000" stroke="#000000" stroke-width="1" opacity="0.8235294117647058" d="M 72.5 30 L 71.5 32 L 72.5 30 Z " /><path fill="#000000" stroke="#000000" stroke-width="1" opacity="0.8235294117647058" d="M 267.5 31 L 268.5 33 L 267.5 31 Z " /><path fill="#000000" stroke="#000000" stroke-width="1" opacity="0.8235294117647058" d="M 69.5 32 L 67.5 35 L 69.5 32 Z " /><path fill="#000000" stroke="#000000" stroke-width="1" opacity="0.8235294117647058" d="M 271.5 34 L 272.5 36 L 271.5 34 Z " /><path fill="#000000" stroke="#000000" stroke-width="1" opacity="0.8235294117647058" d="M 64.5 36 L 63.5 38 L 64.5 36 Z " /><path fill="#000000" stroke="#000000" stroke-width="1" opacity="0.8235294117647058" d="M 275.5 37 L 278.5 41 L 275.5 37 Z " /><path fill="#000000" stroke="#000000" stroke-width="1" opacity="0.8235294117647058" d="M 59.5 40 L 55.5 45 L 59.5 40 Z " /><path fill="#000000" stroke="#000000" stroke-width="1" opacity="0.8235294117647058" d="M 154.5 40 L 160 40.5 L 154.5 41 L 154.5 40 Z " /><path fill="#000000" stroke="#000000" stroke-width="1" opacity="0.8235294117647058" d="M 179.5 40 L 184 40.5 L 179.5 41 L 179.5 40 Z " /><path fill="#000000" stroke="#000000" stroke-width="1" opacity="0.8235294117647058" d="M 147.5 41 L 150 41.5 L 147.5 42 L 147.5 41 Z " /><path fill="#000000" stroke="#000000" stroke-width="1" opacity="0.8235294117647058" d="M 188.5 41 L 191 41.5 L 188.5 42 L 188.5 41 Z " /><path fill="#000000" stroke="#000000" stroke-width="1" opacity="0.8235294117647058" d="M 142.5 42 L 145 42.5 L 142.5 43 L 142.5 42 Z " /><path fill="#000000" stroke="#000000" stroke-width="1" opacity="0.8235294117647058" d="M 281.5 42 L 295.5 57 L 281.5 42 Z " /><path fill="#000000" stroke="#000000" stroke-width="1" opacity="0.8235294117647058" d="M 229.5 54 L 230.5 56 L 229.5 54 Z " /><path fill="#000000" stroke="#000000" stroke-width="1" opacity="0.8235294117647058" d="M 44.5 55 L 40.5 60 L 44.5 55 Z " /><path fill="#000000" stroke="#000000" stroke-width="1" opacity="0.8235294117647058" d="M 103.5 57 L 102.5 59 L 103.5 57 Z " /><path fill="#000000" stroke="#000000" stroke-width="1" opacity="0.8235294117647058" d="M 236.5 58 L 237.5 60 L 236.5 58 Z " /><path fill="#000000" stroke="#000000" stroke-width="1" opacity="0.8235294117647058" d="M 100.5 59 L 99.5 61 L 100.5 59 Z " /><path fill="#000000" stroke="#000000" stroke-width="1" opacity="0.8235294117647058" d="M 298.5 60 L 300.5 63 L 298.5 60 Z " /><path fill="#000000" stroke="#000000" stroke-width="1" opacity="0.8235294117647058" d="M 97.5 61 L 96.5 63 L 97.5 61 Z " /><path fill="#000000" stroke="#000000" stroke-width="1" opacity="0.8235294117647058" d="M 37.5 63 L 35.5 66 L 37.5 63 Z " /><path fill="#000000" stroke="#000000" stroke-width="1" opacity="0.8235294117647058" d="M 94.5 63 L 93.5 65 L 94.5 63 Z " /><path fill="#000000" stroke="#000000" stroke-width="1" opacity="0.8235294117647058" d="M 245.5 64 L 246.5 66 L 245.5 64 Z " /><path fill="#000000" stroke="#000000" stroke-width="1" opacity="0.8235294117647058" d="M 302.5 65 L 304.5 68 L 302.5 65 Z " /><path fill="#000000" stroke="#000000" stroke-width="1" opacity="0.8235294117647058" d="M 90.5 66 L 89.5 68 L 90.5 66 Z " /><path fill="#000000" stroke="#000000" stroke-width="1" opacity="0.8235294117647058" d="M 34.5 67 L 32.5 70 L 34.5 67 Z " /><path fill="#000000" stroke="#000000" stroke-width="1" opacity="0.8235294117647058" d="M 249.5 67 L 251.5 70 L 249.5 67 Z " /><path fill="#000000" stroke="#000000" stroke-width="1" opacity="0.8235294117647058" d="M 86.5 69 L 82.5 74 L 86.5 69 Z " /><path fill="#000000" stroke="#000000" stroke-width="1" opacity="0.8235294117647058" d="M 305.5 69 L 307.5 72 L 305.5 69 Z " /><path fill="#000000" stroke="#000000" stroke-width="1" opacity="0.8235294117647058" d="M 31.5 71 L 30.5 73 L 31.5 71 Z " /><path fill="#000000" stroke="#000000" stroke-width="1" opacity="0.8235294117647058" d="M 255.5 72 L 266.5 84 L 255.5 72 Z " /><path fill="#000000" stroke="#000000" stroke-width="1" opacity="0.8235294117647058" d="M 308.5 73 L 309.5 75 L 308.5 73 Z " /><path fill="#000000" stroke="#000000" stroke-width="1" opacity="0.8235294117647058" d="M 29.5 74 L 28.5 76 L 29.5 74 Z " /><path fill="#000000" stroke="#000000" stroke-width="1" opacity="0.8235294117647058" d="M 310.5 76 L 311.5 78 L 310.5 76 Z " /><path fill="#000000" stroke="#000000" stroke-width="1" opacity="0.8235294117647058" d="M 27.5 77 L 26.5 79 L 27.5 77 Z " /><path fill="#000000" stroke="#000000" stroke-width="1" opacity="0.8235294117647058" d="M 312.5 79 L 313.5 81 L 312.5 79 Z " /><path fill="#000000" stroke="#000000" stroke-width="1" opacity="0.8235294117647058" d="M 25.5 80 L 24.5 82 L 25.5 80 Z " /><path fill="#000000" stroke="#000000" stroke-width="1" opacity="0.8235294117647058" d="M 73.5 82 L 69.5 87 L 73.5 82 Z " /><path fill="#000000" stroke="#000000" stroke-width="1" opacity="0.8235294117647058" d="M 268.5 86 L 270.5 89 L 268.5 86 Z " /><path fill="#000000" stroke="#000000" stroke-width="1" opacity="0.8235294117647058" d="M 316.5 86 L 317.5 88 L 316.5 86 Z " /><path fill="#000000" stroke="#000000" stroke-width="1" opacity="0.8235294117647058" d="M 21.5 87 L 20.5 89 L 21.5 87 Z " /><path fill="#000000" stroke="#000000" stroke-width="1" opacity="0.8235294117647058" d="M 67.5 89 L 65.5 92 L 67.5 89 Z " /><path fill="#000000" stroke="#000000" stroke-width="1" opacity="0.8235294117647058" d="M 272.5 91 L 274.5 94 L 272.5 91 Z " /><path fill="#000000" stroke="#000000" stroke-width="1" opacity="0.8235294117647058" d="M 64.5 93 L 63.5 95 L 64.5 93 Z " /><path fill="#000000" stroke="#000000" stroke-width="1" opacity="0.8235294117647058" d="M 275.5 95 L 276.5 97 L 275.5 95 Z " /><path fill="#000000" stroke="#000000" stroke-width="1" opacity="0.8235294117647058" d="M 62.5 96 L 61.5 98 L 62.5 96 Z " /><path fill="#000000" stroke="#000000" stroke-width="1" opacity="0.8235294117647058" d="M 277.5 98 L 278.5 100 L 277.5 98 Z " /><path fill="#000000" stroke="#000000" stroke-width="1" opacity="0.8235294117647058" d="M 60.5 99 L 59.5 101 L 60.5 99 Z " /><path fill="#000000" stroke="#000000" stroke-width="1" opacity="0.8235294117647058" d="M 58.5 102 L 57.5 104 L 58.5 102 Z " /><path fill="#000000" stroke="#000000" stroke-width="1" opacity="0.8235294117647058" d="M 335.5 137 L 336 139.5 L 335 139.5 L 335.5 137 Z " /><path fill="#000000" stroke="#000000" stroke-width="1" opacity="0.8235294117647058" d="M 2.5 140 L 3 142.5 L 2 142.5 L 2.5 140 Z " /><path fill="#000000" stroke="#000000" stroke-width="1" opacity="0.8235294117647058" d="M 336.5 143 L 337 145.5 L 336 145.5 L 336.5 143 Z " /><path fill="#000000" stroke="#000000" stroke-width="1" opacity="0.8235294117647058" d="M 296.5 144 L 297 146.5 L 296 146.5 L 296.5 144 Z " /><path fill="#000000" stroke="#000000" stroke-width="1" opacity="0.8235294117647058" d="M 1.5 146 L 2 149.5 L 1 149.5 L 1.5 146 Z " /><path fill="#000000" stroke="#000000" stroke-width="1" opacity="0.8235294117647058" d="M 41.5 147 L 42 149.5 L 41 149.5 L 41.5 147 Z " /><path fill="#000000" stroke="#000000" stroke-width="1" opacity="0.8235294117647058" d="M 297.5 150 L 298 153.5 L 297 153.5 L 297.5 150 Z " /><path fill="#000000" stroke="#000000" stroke-width="1" opacity="0.8235294117647058" d="M 337.5 150 L 338 154.5 L 337 154.5 L 337.5 150 Z " /><path fill="#000000" stroke="#000000" stroke-width="1" opacity="0.8235294117647058" d="M 40.5 154 L 41 158.5 L 40 158.5 L 40.5 154 Z " /><path fill="#000000" stroke="#000000" stroke-width="1" opacity="0.8235294117647058" d="M 0.5 155 L 1 164.5 L 0 164.5 L 0.5 155 Z " /><path fill="#000000" stroke="#000000" stroke-width="1" opacity="0.8235294117647058" d="M 298.5 159 L 299 178.5 L 298 178.5 L 298.5 159 Z " /><path fill="#000000" stroke="#000000" stroke-width="1" opacity="0.8235294117647058" d="M 338.5 164 L 339 174.5 L 338 174.5 L 338.5 164 Z " /><path fill="#000000" stroke="#000000" stroke-width="1" opacity="0.8235294117647058" d="M 0.5 173 L 1 182.5 L 0 182.5 L 0.5 173 Z " /><path fill="#000000" stroke="#000000" stroke-width="1" opacity="0.8235294117647058" d="M 40.5 179 L 41 183.5 L 40 183.5 L 40.5 179 Z " /><path fill="#000000" stroke="#000000" stroke-width="1" opacity="0.8235294117647058" d="M 337.5 183 L 338 187.5 L 337 187.5 L 337.5 183 Z " /><path fill="#000000" stroke="#000000" stroke-width="1" opacity="0.8235294117647058" d="M 297.5 184 L 298 187.5 L 297 187.5 L 297.5 184 Z " /><path fill="#000000" stroke="#000000" stroke-width="1" opacity="0.8235294117647058" d="M 1.5 188 L 2 191.5 L 1 191.5 L 1.5 188 Z " /><path fill="#000000" stroke="#000000" stroke-width="1" opacity="0.8235294117647058" d="M 41.5 188 L 42 190.5 L 41 190.5 L 41.5 188 Z " /><path fill="#000000" stroke="#000000" stroke-width="1" opacity="0.8235294117647058" d="M 296.5 191 L 297 193.5 L 296 193.5 L 296.5 191 Z " /><path fill="#000000" stroke="#000000" stroke-width="1" opacity="0.8235294117647058" d="M 336.5 192 L 337 195.5 L 336 195.5 L 336.5 192 Z " /><path fill="#000000" stroke="#000000" stroke-width="1" opacity="0.8235294117647058" d="M 2.5 196 L 3 198.5 L 2 198.5 L 2.5 196 Z " /><path fill="#000000" stroke="#000000" stroke-width="1" opacity="0.8235294117647058" d="M 295.5 196 L 296 198.5 L 295 198.5 L 295.5 196 Z " /><path fill="#000000" stroke="#000000" stroke-width="1" opacity="0.8235294117647058" d="M 3.5 201 L 4 203.5 L 3 203.5 L 3.5 201 Z " /><path fill="#000000" stroke="#000000" stroke-width="1" opacity="0.8235294117647058" d="M 51.5 222 L 54 227.5 L 53 227.5 L 51.5 222 Z " /><path fill="#000000" stroke="#000000" stroke-width="1" opacity="0.8235294117647058" d="M 54.5 229 L 55.5 231 L 54.5 229 Z " /><path fill="#000000" stroke="#000000" stroke-width="1" opacity="0.8235294117647058" d="M 283.5 230 L 282.5 232 L 283.5 230 Z " /><path fill="#000000" stroke="#000000" stroke-width="1" opacity="0.8235294117647058" d="M 58.5 236 L 59.5 238 L 58.5 236 Z " /><path fill="#000000" stroke="#000000" stroke-width="1" opacity="0.8235294117647058" d="M 60.5 239 L 61.5 241 L 60.5 239 Z " /><path fill="#000000" stroke="#000000" stroke-width="1" opacity="0.8235294117647058" d="M 277.5 240 L 276.5 242 L 277.5 240 Z " /><path fill="#000000" stroke="#000000" stroke-width="1" opacity="0.8235294117647058" d="M 62.5 242 L 63.5 244 L 62.5 242 Z " /><path fill="#000000" stroke="#000000" stroke-width="1" opacity="0.8235294117647058" d="M 275.5 243 L 274.5 245 L 275.5 243 Z " /><path fill="#000000" stroke="#000000" stroke-width="1" opacity="0.8235294117647058" d="M 64.5 245 L 66.5 248 L 64.5 245 Z " /><path fill="#000000" stroke="#000000" stroke-width="1" opacity="0.8235294117647058" d="M 272.5 247 L 270.5 250 L 272.5 247 Z " /><path fill="#000000" stroke="#000000" stroke-width="1" opacity="0.8235294117647058" d="M 68.5 250 L 70.5 253 L 68.5 250 Z " /><path fill="#000000" stroke="#000000" stroke-width="1" opacity="0.8235294117647058" d="M 268.5 252 L 264.5 257 L 268.5 252 Z " /><path fill="#000000" stroke="#000000" stroke-width="1" opacity="0.8235294117647058" d="M 22.5 253 L 23.5 255 L 22.5 253 Z " /><path fill="#000000" stroke="#000000" stroke-width="1" opacity="0.8235294117647058" d="M 315.5 254 L 314.5 256 L 315.5 254 Z " /><path fill="#000000" stroke="#000000" stroke-width="1" opacity="0.8235294117647058" d="M 73.5 256 L 82.5 266 L 73.5 256 Z " /><path fill="#000000" stroke="#000000" stroke-width="1" opacity="0.8235294117647058" d="M 25.5 258 L 26.5 260 L 25.5 258 Z " /><path fill="#000000" stroke="#000000" stroke-width="1" opacity="0.8235294117647058" d="M 27.5 261 L 28.5 263 L 27.5 261 Z " /><path fill="#000000" stroke="#000000" stroke-width="1" opacity="0.8235294117647058" d="M 310.5 262 L 309.5 264 L 310.5 262 Z " /><path fill="#000000" stroke="#000000" stroke-width="1" opacity="0.8235294117647058" d="M 29.5 264 L 30.5 266 L 29.5 264 Z " /><path fill="#000000" stroke="#000000" stroke-width="1" opacity="0.8235294117647058" d="M 256.5 264 L 252.5 269 L 256.5 264 Z " /><path fill="#000000" stroke="#000000" stroke-width="1" opacity="0.8235294117647058" d="M 308.5 265 L 307.5 267 L 308.5 265 Z " /><path fill="#000000" stroke="#000000" stroke-width="1" opacity="0.8235294117647058" d="M 31.5 267 L 32.5 269 L 31.5 267 Z " /><path fill="#000000" stroke="#000000" stroke-width="1" opacity="0.8235294117647058" d="M 85.5 267 L 88.5 271 L 85.5 267 Z " /><path fill="#000000" stroke="#000000" stroke-width="1" opacity="0.8235294117647058" d="M 305.5 269 L 304.5 271 L 305.5 269 Z " /><path fill="#000000" stroke="#000000" stroke-width="1" opacity="0.8235294117647058" d="M 249.5 270 L 247.5 273 L 249.5 270 Z " /><path fill="#000000" stroke="#000000" stroke-width="1" opacity="0.8235294117647058" d="M 34.5 271 L 36.5 274 L 34.5 271 Z " /><path fill="#000000" stroke="#000000" stroke-width="1" opacity="0.8235294117647058" d="M 91.5 272 L 92.5 274 L 91.5 272 Z " /><path fill="#000000" stroke="#000000" stroke-width="1" opacity="0.8235294117647058" d="M 245.5 273 L 244.5 275 L 245.5 273 Z " /><path fill="#000000" stroke="#000000" stroke-width="1" opacity="0.8235294117647058" d="M 302.5 273 L 323.5 295 L 325 295.5 L 323.5 296 L 302 274.5 L 302.5 273 Z " /><path fill="#000000" stroke="#000000" stroke-width="1" opacity="0.8235294117647058" d="M 94.5 274 L 95.5 276 L 94.5 274 Z " /><path fill="#000000" stroke="#000000" stroke-width="1" opacity="0.8235294117647058" d="M 37.5 275 L 41.5 280 L 37.5 275 Z " /><path fill="#000000" stroke="#000000" stroke-width="1" opacity="0.8235294117647058" d="M 241.5 276 L 240.5 278 L 241.5 276 Z " /><path fill="#000000" stroke="#000000" stroke-width="1" opacity="0.8235294117647058" d="M 103.5 280 L 104.5 282 L 103.5 280 Z " /><path fill="#000000" stroke="#000000" stroke-width="1" opacity="0.8235294117647058" d="M 43.5 282 L 55.5 295 L 43.5 282 Z " /><path fill="#000000" stroke="#000000" stroke-width="1" opacity="0.8235294117647058" d="M 229.5 283 L 228.5 285 L 229.5 283 Z " /><path fill="#000000" stroke="#000000" stroke-width="1" opacity="0.8235294117647058" d="M 348.5 294 L 349.5 296 L 348.5 294 Z " /><path fill="#000000" stroke="#000000" stroke-width="1" opacity="0.8235294117647058" d="M 196.5 295 L 199 295.5 L 196.5 296 L 196.5 295 Z " /><path fill="#000000" stroke="#000000" stroke-width="1" opacity="0.8235294117647058" d="M 191.5 296 L 194 296.5 L 191.5 297 L 191.5 296 Z " /><path fill="#000000" stroke="#000000" stroke-width="1" opacity="0.8235294117647058" d="M 59.5 297 L 62.5 301 L 59.5 297 Z " /><path fill="#000000" stroke="#000000" stroke-width="1" opacity="0.8235294117647058" d="M 150.5 297 L 154 297.5 L 150.5 298 L 150.5 297 Z " /><path fill="#000000" stroke="#000000" stroke-width="1" opacity="0.8235294117647058" d="M 184.5 297 L 188 297.5 L 184.5 298 L 184.5 297 Z " /><path fill="#000000" stroke="#000000" stroke-width="1" opacity="0.8235294117647058" d="M 160.5 298 L 179 298.5 L 160.5 299 L 160.5 298 Z " /><path fill="#000000" stroke="#000000" stroke-width="1" opacity="0.8235294117647058" d="M 65.5 302 L 67.5 305 L 65.5 302 Z " /><path fill="#000000" stroke="#000000" stroke-width="1" opacity="0.8235294117647058" d="M 273.5 302 L 296 323.5 L 295.5 325 L 274.5 303 L 273.5 302 Z " /><path fill="#000000" stroke="#000000" stroke-width="1" opacity="0.8235294117647058" d="M 270.5 304 L 269.5 306 L 270.5 304 Z " /><path fill="#000000" stroke="#000000" stroke-width="1" opacity="0.8235294117647058" d="M 69.5 305 L 70.5 307 L 69.5 305 Z " /><path fill="#000000" stroke="#000000" stroke-width="1" opacity="0.8235294117647058" d="M 72.5 307 L 74.5 310 L 72.5 307 Z " /><path fill="#000000" stroke="#000000" stroke-width="1" opacity="0.8235294117647058" d="M 263.5 309 L 262.5 311 L 263.5 309 Z " /><path fill="#000000" stroke="#000000" stroke-width="1" opacity="0.8235294117647058" d="M 258.5 312 L 257.5 314 L 258.5 312 Z " /><path fill="#000000" stroke="#000000" stroke-width="1" opacity="0.8235294117647058" d="M 81.5 313 L 82.5 315 L 81.5 313 Z " /><path fill="#000000" stroke="#000000" stroke-width="1" opacity="0.8235294117647058" d="M 90.5 318 L 91.5 320 L 90.5 318 Z " /><path fill="#000000" stroke="#000000" stroke-width="1" opacity="0.8235294117647058" d="M 95.5 321 L 99 322.5 L 97.5 323 L 95.5 321 Z " /><path fill="#000000" stroke="#000000" stroke-width="1" opacity="0.8235294117647058" d="M 203.5 334 L 206 334.5 L 203.5 335 L 203.5 334 Z " /><path fill="#000000" stroke="#000000" stroke-width="1" opacity="0.8235294117647058" d="M 138.5 335 L 141 335.5 L 138.5 336 L 138.5 335 Z " /><path fill="#000000" stroke="#000000" stroke-width="1" opacity="0.8235294117647058" d="M 198.5 335 L 201 335.5 L 198.5 336 L 198.5 335 Z " /><path fill="#000000" stroke="#000000" stroke-width="1" opacity="0.8235294117647058" d="M 144.5 336 L 147 336.5 L 144.5 337 L 144.5 336 Z " /><path fill="#000000" stroke="#000000" stroke-width="1" opacity="0.8235294117647058" d="M 191.5 336 L 195 336.5 L 191.5 337 L 191.5 336 Z " /><path fill="#000000" stroke="#000000" stroke-width="1" opacity="0.8235294117647058" d="M 151.5 337 L 157 337.5 L 151.5 338 L 151.5 337 Z " /><path fill="#000000" stroke="#000000" stroke-width="1" opacity="0.8235294117647058" d="M 181.5 337 L 187 337.5 L 181.5 338 L 181.5 337 Z " /><path fill="#000000" stroke="#000000" stroke-width="1" opacity="0.8235294117647058" d="M 294.5 348 L 296.5 351 L 294.5 348 Z " /><path fill="#000000" stroke="#000000" stroke-width="1" opacity="0.8235294117647058" d="M 507.5 453 L 508.5 455 L 507.5 453 Z " /><path fill="#000000" stroke="#000000" stroke-width="1" opacity="0.8235294117647058" d="M 511.5 461 L 512 463.5 L 511 463.5 L 511.5 461 Z " /><path fill="#000000" stroke="#000000" stroke-width="1" opacity="0.8235294117647058" d="M 511.5 467 L 512 469.5 L 511 469.5 L 511.5 467 Z " /><path fill="#000000" stroke="#000000" stroke-width="1" opacity="0.8235294117647058" d="M 452.5 506 L 454.5 509 L 452.5 506 Z " /><path fill="#000000" stroke="#000000" stroke-width="1" opacity="0.8235294117647058" d="M 477.5 507 L 476.5 509 L 477.5 507 Z " /><path fill="#000000" stroke="#000000" stroke-width="1" opacity="0.8235294117647058" d="M 461.5 511 L 465 511.5 L 461.5 512 L 461.5 511 Z " /><path fill="#000000" stroke="#000000" stroke-width="1" opacity="0.8235294117647058" d="M 466.5 511 L 470 511.5 L 466.5 512 L 466.5 511 Z " /><path fill="#000000" stroke="#000000" stroke-width="1" opacity="0" d="M 0 0 L 156 0.5 L 140.5 2 L 119.5 7 L 88.5 20 Q 60.2 35.7 40 59.5 Q 24.4 77.4 14 100.5 L 4 130.5 L 0.5 155 L 0 0 Z " /><path fill="#000000" stroke="#000000" stroke-width="1" opacity="0" d="M 182.5 0 L 512 0 L 512 460.5 L 511 460.5 L 509 454.5 L 348.5 294 Q 343.7 289.3 332.5 291 L 323.5 295 L 303 274.5 L 303 272.5 Q 319.7 253.2 329 226.5 L 337 195.5 L 339 164.5 L 338 163.5 L 338 150.5 L 337 149.5 L 335 132.5 L 325 101.5 Q 309 66 281.5 42 Q 261.8 24.2 235.5 13 L 215.5 6 L 191.5 1 L 182.5 1 L 182.5 0 Z " /><path fill="#000000" stroke="#000000" stroke-width="1" opacity="0" d="M 160.5 40 L 187.5 41 L 202.5 44 L 217.5 49 Q 248.3 61.7 268 85.5 Q 283.5 103 292 127.5 L 298 154.5 L 298 183.5 L 294 204.5 L 284 229.5 Q 273.4 249.4 257.5 264 Q 237.4 283.4 207.5 293 L 183.5 298 L 154.5 298 L 134.5 294 Q 118.5 289.5 105.5 282 Q 85.5 270.5 71 253.5 Q 52.5 233 44 202.5 L 41 187.5 L 41 179.5 L 40 178.5 L 40 159.5 L 41 158.5 L 42 144.5 L 50 118.5 Q 61.7 92.2 81.5 74 Q 96.3 59.8 116.5 51 L 132.5 45 L 160.5 40 Z " /><path fill="#000000" stroke="#000000" stroke-width="1" opacity="0" d="M 0.5 183 L 3 203.5 L 13 235.5 Q 28.6 270.9 55.5 295 Q 82.2 319.8 121.5 332 L 151.5 338 L 186.5 338 L 187.5 337 L 205.5 335 L 226.5 329 L 252.5 317 L 272.5 303 L 274.5 303 L 295 323.5 L 295 325.5 Q 289.4 329.9 291 341.5 L 294 348.5 L 454.5 509 L 461 511.5 L 0 512 L 0.5 183 Z " /><path fill="#000000" stroke="#000000" stroke-width="1" opacity="0" d="M 511.5 470 L 512 512 L 470 511.5 L 476.5 509 L 509 476.5 L 511.5 470 Z " /><path fill="#000000" stroke="#000000" stroke-width="1" opacity="1" d="M 168.5 0 L 171.5 1 L 187.5 1 L 188.5 2 L 205.5 4 L 236.5 14 Q 273.5 30.5 298 59.5 Q 320.7 85.3 332 122.5 L 338 155.5 L 338 182.5 L 337 183.5 L 337 191.5 L 336 192.5 L 335 203.5 L 327 230.5 Q 317.1 255.1 302 274.5 L 324.5 296 Q 329.3 290.3 340.5 291 L 350.5 296 L 507 452.5 Q 511.8 457.2 512 466.5 L 508 477.5 L 478.5 507 L 471.5 511 Q 466.8 509.7 465.5 512 Q 464.3 509.7 459.5 511 L 451.5 506 L 297 351.5 Q 290.7 346.3 291 334.5 L 296 323.5 L 273.5 302 Q 249.6 322.1 215.5 332 L 190.5 337 L 157.5 338 L 156.5 337 L 147.5 337 L 146.5 336 L 135.5 335 L 123.5 332 L 94.5 321 Q 63.6 305.4 42 280.5 Q 21.7 257.8 10 226.5 L 2 195.5 L 0 165.5 L 1 164.5 L 1 150.5 L 2 149.5 L 4 132.5 L 15 99.5 Q 30.1 67.6 54.5 45 Q 77.4 23.4 109.5 11 L 137.5 3 L 150.5 2 L 151.5 1 L 167.5 1 L 168.5 0 Z M 155 40 L 135 44 L 118 50 Q 100 57 87 69 Q 69 83 57 104 L 46 128 L 40 155 L 40 184 L 45 208 Q 54 237 73 257 Q 92 277 119 289 L 141 296 L 151 298 L 160 298 L 161 299 L 179 299 L 180 298 L 188 298 L 203 295 Q 232 287 253 269 Q 272 253 284 231 L 295 203 L 298 188 L 298 180 L 299 179 L 298 151 L 291 124 Q 282 100 267 84 Q 246 59 214 47 L 201 43 L 184 40 L 155 40 Z " /></svg>