<svg fill="#000000" width="512" height="512" version="1.1" xmlns="http://www.w3.org/2000/svg" desc="Created with imagetracer.js version 1.2.6" ><path fill="#000000" stroke="#000000" stroke-width="1" opacity="0.8352941176470589" d="M 364.5 32 L 367 32.5 L 364.5 33 L 364.5 32 Z " /><path fill="#000000" stroke="#000000" stroke-width="1" opacity="0.8352941176470589" d="M 369.5 32 L 372 32.5 L 369.5 33 L 369.5 32 Z " /><path fill="#000000" stroke="#000000" stroke-width="1" opacity="0.8352941176470589" d="M 263.5 66 L 258.5 72 L 263.5 66 Z " /><path fill="#000000" stroke="#000000" stroke-width="1" opacity="0.8352941176470589" d="M 472.5 66 L 477.5 72 L 472.5 66 Z " /><path fill="#000000" stroke="#000000" stroke-width="1" opacity="0.8352941176470589" d="M 256.5 76 L 257 78.5 L 256 78.5 L 256.5 76 Z " /><path fill="#000000" stroke="#000000" stroke-width="1" opacity="0.8352941176470589" d="M 479.5 76 L 480 78.5 L 479 78.5 L 479.5 76 Z " /><path fill="#000000" stroke="#000000" stroke-width="1" opacity="0.8352941176470589" d="M 256.5 81 L 257 83.5 L 256 83.5 L 256.5 81 Z " /><path fill="#000000" stroke="#000000" stroke-width="1" opacity="0.8352941176470589" d="M 258.5 88 L 263.5 94 L 258.5 88 Z " /><path fill="#000000" stroke="#000000" stroke-width="1" opacity="0.8352941176470589" d="M 364.5 127 L 367 127.5 L 364.5 128 L 364.5 127 Z " /><path fill="#000000" stroke="#000000" stroke-width="1" opacity="0.8352941176470589" d="M 369.5 127 L 372 127.5 L 369.5 128 L 369.5 127 Z " /><path fill="#000000" stroke="#000000" stroke-width="1" opacity="0.8352941176470589" d="M 249.5 128 L 254 128.5 L 249.5 129 L 249.5 128 Z " /><path fill="#000000" stroke="#000000" stroke-width="1" opacity="0.8352941176470589" d="M 258.5 128 L 263 128.5 L 258.5 129 L 258.5 128 Z " /><path fill="#000000" stroke="#000000" stroke-width="1" opacity="0.8352941176470589" d="M 230.5 135 L 229.5 137 L 230.5 135 Z " /><path fill="#000000" stroke="#000000" stroke-width="1" opacity="0.8352941176470589" d="M 281.5 135 L 282.5 137 L 281.5 135 Z " /><path fill="#000000" stroke="#000000" stroke-width="1" opacity="0.8352941176470589" d="M 227.5 137 L 225.5 140 L 227.5 137 Z " /><path fill="#000000" stroke="#000000" stroke-width="1" opacity="0.8352941176470589" d="M 284.5 137 L 286.5 140 L 284.5 137 Z " /><path fill="#000000" stroke="#000000" stroke-width="1" opacity="0.8352941176470589" d="M 219.5 145 L 217.5 148 L 219.5 145 Z " /><path fill="#000000" stroke="#000000" stroke-width="1" opacity="0.8352941176470589" d="M 292.5 145 L 294.5 148 L 292.5 145 Z " /><path fill="#000000" stroke="#000000" stroke-width="1" opacity="0.8352941176470589" d="M 304.5 145 L 305 147.5 L 304 147.5 L 304.5 145 Z " /><path fill="#000000" stroke="#000000" stroke-width="1" opacity="0.8352941176470589" d="M 431.5 145 L 432 147.5 L 431 147.5 L 431.5 145 Z " /><path fill="#000000" stroke="#000000" stroke-width="1" opacity="0.8352941176470589" d="M 479.5 145 L 480 147.5 L 479 147.5 L 479.5 145 Z " /><path fill="#000000" stroke="#000000" stroke-width="1" opacity="0.8352941176470589" d="M 216.5 149 L 215.5 151 L 216.5 149 Z " /><path fill="#000000" stroke="#000000" stroke-width="1" opacity="0.8352941176470589" d="M 295.5 149 L 296.5 151 L 295.5 149 Z " /><path fill="#000000" stroke="#000000" stroke-width="1" opacity="0.8352941176470589" d="M 306.5 152 L 311.5 158 L 306.5 152 Z " /><path fill="#000000" stroke="#000000" stroke-width="1" opacity="0.8352941176470589" d="M 429.5 152 L 424.5 158 L 429.5 152 Z " /><path fill="#000000" stroke="#000000" stroke-width="1" opacity="0.8352941176470589" d="M 450.5 152 L 455.5 158 L 450.5 152 Z " /><path fill="#000000" stroke="#000000" stroke-width="1" opacity="0.8352941176470589" d="M 477.5 152 L 472.5 158 L 477.5 152 Z " /><path fill="#000000" stroke="#000000" stroke-width="1" opacity="0.8352941176470589" d="M 460.5 159 L 463 159.5 L 460.5 160 L 460.5 159 Z " /><path fill="#000000" stroke="#000000" stroke-width="1" opacity="0.8352941176470589" d="M 465.5 159 L 468 159.5 L 465.5 160 L 465.5 159 Z " /><path fill="#000000" stroke="#000000" stroke-width="1" opacity="0.8352941176470589" d="M 248.5 161 L 247.5 163 L 248.5 161 Z " /><path fill="#000000" stroke="#000000" stroke-width="1" opacity="0.8352941176470589" d="M 263.5 161 L 264.5 163 L 263.5 161 Z " /><path fill="#000000" stroke="#000000" stroke-width="1" opacity="0.8352941176470589" d="M 266.5 163 L 268.5 166 L 266.5 163 Z " /><path fill="#000000" stroke="#000000" stroke-width="1" opacity="0.8352941176470589" d="M 244.5 164 L 243.5 166 L 244.5 164 Z " /><path fill="#000000" stroke="#000000" stroke-width="1" opacity="0.8352941176470589" d="M 242.5 167 L 241.5 169 L 242.5 167 Z " /><path fill="#000000" stroke="#000000" stroke-width="1" opacity="0.8352941176470589" d="M 269.5 167 L 270.5 169 L 269.5 167 Z " /><path fill="#000000" stroke="#000000" stroke-width="1" opacity="0.8352941176470589" d="M 208.5 169 L 209 173.5 L 208 173.5 L 208.5 169 Z " /><path fill="#000000" stroke="#000000" stroke-width="1" opacity="0.8352941176470589" d="M 303.5 169 L 304 173.5 L 303 173.5 L 303.5 169 Z " /><path fill="#000000" stroke="#000000" stroke-width="1" opacity="0.8352941176470589" d="M 364.5 175 L 367 175.5 L 364.5 176 L 364.5 175 Z " /><path fill="#000000" stroke="#000000" stroke-width="1" opacity="0.8352941176470589" d="M 369.5 175 L 372 175.5 L 369.5 176 L 369.5 175 Z " /><path fill="#000000" stroke="#000000" stroke-width="1" opacity="0.8352941176470589" d="M 208.5 178 L 209 182.5 L 208 182.5 L 208.5 178 Z " /><path fill="#000000" stroke="#000000" stroke-width="1" opacity="0.8352941176470589" d="M 303.5 178 L 304 182.5 L 303 182.5 L 303.5 178 Z " /><path fill="#000000" stroke="#000000" stroke-width="1" opacity="0.8352941176470589" d="M 241.5 183 L 242.5 185 L 241.5 183 Z " /><path fill="#000000" stroke="#000000" stroke-width="1" opacity="0.8352941176470589" d="M 270.5 183 L 269.5 185 L 270.5 183 Z " /><path fill="#000000" stroke="#000000" stroke-width="1" opacity="0.8352941176470589" d="M 243.5 186 L 244.5 188 L 243.5 186 Z " /><path fill="#000000" stroke="#000000" stroke-width="1" opacity="0.8352941176470589" d="M 268.5 186 L 266.5 189 L 268.5 186 Z " /><path fill="#000000" stroke="#000000" stroke-width="1" opacity="0.8352941176470589" d="M 247.5 189 L 248.5 191 L 247.5 189 Z " /><path fill="#000000" stroke="#000000" stroke-width="1" opacity="0.8352941176470589" d="M 264.5 189 L 263.5 191 L 264.5 189 Z " /><path fill="#000000" stroke="#000000" stroke-width="1" opacity="0.8352941176470589" d="M 215.5 201 L 216.5 203 L 215.5 201 Z " /><path fill="#000000" stroke="#000000" stroke-width="1" opacity="0.8352941176470589" d="M 296.5 201 L 295.5 203 L 296.5 201 Z " /><path fill="#000000" stroke="#000000" stroke-width="1" opacity="0.8352941176470589" d="M 217.5 204 L 219.5 207 L 217.5 204 Z " /><path fill="#000000" stroke="#000000" stroke-width="1" opacity="0.8352941176470589" d="M 294.5 204 L 292.5 207 L 294.5 204 Z " /><path fill="#000000" stroke="#000000" stroke-width="1" opacity="0.8352941176470589" d="M 225.5 212 L 227.5 215 L 225.5 212 Z " /><path fill="#000000" stroke="#000000" stroke-width="1" opacity="0.8352941176470589" d="M 286.5 212 L 284.5 215 L 286.5 212 Z " /><path fill="#000000" stroke="#000000" stroke-width="1" opacity="0.8352941176470589" d="M 229.5 215 L 230.5 217 L 229.5 215 Z " /><path fill="#000000" stroke="#000000" stroke-width="1" opacity="0.8352941176470589" d="M 282.5 215 L 281.5 217 L 282.5 215 Z " /><path fill="#000000" stroke="#000000" stroke-width="1" opacity="0.8352941176470589" d="M 249.5 223 L 254 223.5 L 249.5 224 L 249.5 223 Z " /><path fill="#000000" stroke="#000000" stroke-width="1" opacity="0.8352941176470589" d="M 258.5 223 L 263 223.5 L 258.5 224 L 258.5 223 Z " /><path fill="#000000" stroke="#000000" stroke-width="1" opacity="0.8352941176470589" d="M 217.5 224 L 222 224.5 L 217.5 225 L 217.5 224 Z " /><path fill="#000000" stroke="#000000" stroke-width="1" opacity="0.8352941176470589" d="M 290.5 224 L 295 224.5 L 290.5 225 L 290.5 224 Z " /><path fill="#000000" stroke="#000000" stroke-width="1" opacity="0.8352941176470589" d="M 198.5 231 L 197.5 233 L 198.5 231 Z " /><path fill="#000000" stroke="#000000" stroke-width="1" opacity="0.8352941176470589" d="M 313.5 231 L 314.5 233 L 313.5 231 Z " /><path fill="#000000" stroke="#000000" stroke-width="1" opacity="0.8352941176470589" d="M 195.5 233 L 193.5 236 L 195.5 233 Z " /><path fill="#000000" stroke="#000000" stroke-width="1" opacity="0.8352941176470589" d="M 316.5 233 L 318.5 236 L 316.5 233 Z " /><path fill="#000000" stroke="#000000" stroke-width="1" opacity="0.8352941176470589" d="M 187.5 241 L 185.5 244 L 187.5 241 Z " /><path fill="#000000" stroke="#000000" stroke-width="1" opacity="0.8352941176470589" d="M 324.5 241 L 326.5 244 L 324.5 241 Z " /><path fill="#000000" stroke="#000000" stroke-width="1" opacity="0.8352941176470589" d="M 184.5 245 L 183.5 247 L 184.5 245 Z " /><path fill="#000000" stroke="#000000" stroke-width="1" opacity="0.8352941176470589" d="M 327.5 245 L 328.5 247 L 327.5 245 Z " /><path fill="#000000" stroke="#000000" stroke-width="1" opacity="0.8352941176470589" d="M 216.5 257 L 215.5 259 L 216.5 257 Z " /><path fill="#000000" stroke="#000000" stroke-width="1" opacity="0.8352941176470589" d="M 295.5 257 L 296.5 259 L 295.5 257 Z " /><path fill="#000000" stroke="#000000" stroke-width="1" opacity="0.8352941176470589" d="M 298.5 259 L 300.5 262 L 298.5 259 Z " /><path fill="#000000" stroke="#000000" stroke-width="1" opacity="0.8352941176470589" d="M 212.5 260 L 211.5 262 L 212.5 260 Z " /><path fill="#000000" stroke="#000000" stroke-width="1" opacity="0.8352941176470589" d="M 210.5 263 L 209.5 265 L 210.5 263 Z " /><path fill="#000000" stroke="#000000" stroke-width="1" opacity="0.8352941176470589" d="M 301.5 263 L 302.5 265 L 301.5 263 Z " /><path fill="#000000" stroke="#000000" stroke-width="1" opacity="0.8352941176470589" d="M 176.5 265 L 177 269.5 L 176 269.5 L 176.5 265 Z " /><path fill="#000000" stroke="#000000" stroke-width="1" opacity="0.8352941176470589" d="M 335.5 265 L 336 269.5 L 335 269.5 L 335.5 265 Z " /><path fill="#000000" stroke="#000000" stroke-width="1" opacity="0.8352941176470589" d="M 335.5 305 L 336 307.5 L 335 307.5 L 335.5 305 Z " /><path fill="#000000" stroke="#000000" stroke-width="1" opacity="0.8352941176470589" d="M 178.5 312 L 183.5 318 L 178.5 312 Z " /><path fill="#000000" stroke="#000000" stroke-width="1" opacity="0.8352941176470589" d="M 333.5 312 L 328.5 318 L 333.5 312 Z " /><path fill="#000000" stroke="#000000" stroke-width="1" opacity="0.8352941176470589" d="M 188.5 319 L 191 319.5 L 188.5 320 L 188.5 319 Z " /><path fill="#000000" stroke="#000000" stroke-width="1" opacity="0.8352941176470589" d="M 321.5 319 L 324 319.5 L 321.5 320 L 321.5 319 Z " /><path fill="#000000" stroke="#000000" stroke-width="1" opacity="0.8352941176470589" d="M 156.5 336 L 159 336.5 L 156.5 337 L 156.5 336 Z " /><path fill="#000000" stroke="#000000" stroke-width="1" opacity="0.8352941176470589" d="M 161.5 336 L 164 336.5 L 161.5 337 L 161.5 336 Z " /><path fill="#000000" stroke="#000000" stroke-width="1" opacity="0.8352941176470589" d="M 252.5 336 L 255 336.5 L 252.5 337 L 252.5 336 Z " /><path fill="#000000" stroke="#000000" stroke-width="1" opacity="0.8352941176470589" d="M 257.5 336 L 260 336.5 L 257.5 337 L 257.5 336 Z " /><path fill="#000000" stroke="#000000" stroke-width="1" opacity="0.8352941176470589" d="M 348.5 336 L 351 336.5 L 348.5 337 L 348.5 336 Z " /><path fill="#000000" stroke="#000000" stroke-width="1" opacity="0.8352941176470589" d="M 353.5 336 L 356 336.5 L 353.5 337 L 353.5 336 Z " /><path fill="#000000" stroke="#000000" stroke-width="1" opacity="0.8352941176470589" d="M 151.5 338 L 149.5 341 L 151.5 338 Z " /><path fill="#000000" stroke="#000000" stroke-width="1" opacity="0.8352941176470589" d="M 168.5 338 L 173.5 344 L 168.5 338 Z " /><path fill="#000000" stroke="#000000" stroke-width="1" opacity="0.8352941176470589" d="M 247.5 338 L 242.5 344 L 247.5 338 Z " /><path fill="#000000" stroke="#000000" stroke-width="1" opacity="0.8352941176470589" d="M 264.5 338 L 269.5 344 L 264.5 338 Z " /><path fill="#000000" stroke="#000000" stroke-width="1" opacity="0.8352941176470589" d="M 343.5 338 L 338.5 344 L 343.5 338 Z " /><path fill="#000000" stroke="#000000" stroke-width="1" opacity="0.8352941176470589" d="M 360.5 338 L 362.5 341 L 360.5 338 Z " /><path fill="#000000" stroke="#000000" stroke-width="1" opacity="0.8352941176470589" d="M 175.5 348 L 176 350.5 L 175 350.5 L 175.5 348 Z " /><path fill="#000000" stroke="#000000" stroke-width="1" opacity="0.8352941176470589" d="M 271.5 348 L 272 350.5 L 271 350.5 L 271.5 348 Z " /><path fill="#000000" stroke="#000000" stroke-width="1" opacity="0.8352941176470589" d="M 336.5 348 L 337 350.5 L 336 350.5 L 336.5 348 Z " /><path fill="#000000" stroke="#000000" stroke-width="1" opacity="0.8352941176470589" d="M 175.5 353 L 176 355.5 L 175 355.5 L 175.5 353 Z " /><path fill="#000000" stroke="#000000" stroke-width="1" opacity="0.8352941176470589" d="M 336.5 353 L 337 355.5 L 336 355.5 L 336.5 353 Z " /><path fill="#000000" stroke="#000000" stroke-width="1" opacity="0.8352941176470589" d="M 173.5 360 L 171.5 363 L 173.5 360 Z " /><path fill="#000000" stroke="#000000" stroke-width="1" opacity="0.8352941176470589" d="M 338.5 360 L 340.5 363 L 338.5 360 Z " /><path fill="#000000" stroke="#000000" stroke-width="1" opacity="0.8352941176470589" d="M 73.5 384 L 78 384.5 L 73.5 385 L 73.5 384 Z " /><path fill="#000000" stroke="#000000" stroke-width="1" opacity="0.8352941176470589" d="M 83.5 384 L 87 384.5 L 83.5 385 L 83.5 384 Z " /><path fill="#000000" stroke="#000000" stroke-width="1" opacity="0.8352941176470589" d="M 425.5 384 L 429 384.5 L 425.5 385 L 425.5 384 Z " /><path fill="#000000" stroke="#000000" stroke-width="1" opacity="0.8352941176470589" d="M 434.5 384 L 439 384.5 L 434.5 385 L 434.5 384 Z " /><path fill="#000000" stroke="#000000" stroke-width="1" opacity="0.8352941176470589" d="M 54.5 391 L 53.5 393 L 54.5 391 Z " /><path fill="#000000" stroke="#000000" stroke-width="1" opacity="0.8352941176470589" d="M 230.5 391 L 229.5 393 L 230.5 391 Z " /><path fill="#000000" stroke="#000000" stroke-width="1" opacity="0.8352941176470589" d="M 281.5 391 L 282.5 393 L 281.5 391 Z " /><path fill="#000000" stroke="#000000" stroke-width="1" opacity="0.8352941176470589" d="M 457.5 391 L 458.5 393 L 457.5 391 Z " /><path fill="#000000" stroke="#000000" stroke-width="1" opacity="0.8352941176470589" d="M 51.5 393 L 49.5 396 L 51.5 393 Z " /><path fill="#000000" stroke="#000000" stroke-width="1" opacity="0.8352941176470589" d="M 460.5 393 L 462.5 396 L 460.5 393 Z " /><path fill="#000000" stroke="#000000" stroke-width="1" opacity="0.8352941176470589" d="M 226.5 394 L 223.5 398 L 226.5 394 Z " /><path fill="#000000" stroke="#000000" stroke-width="1" opacity="0.8352941176470589" d="M 285.5 394 L 288.5 398 L 285.5 394 Z " /><path fill="#000000" stroke="#000000" stroke-width="1" opacity="0.8352941176470589" d="M 220.5 400 L 217.5 404 L 220.5 400 Z " /><path fill="#000000" stroke="#000000" stroke-width="1" opacity="0.8352941176470589" d="M 291.5 400 L 294.5 404 L 291.5 400 Z " /><path fill="#000000" stroke="#000000" stroke-width="1" opacity="0.8352941176470589" d="M 43.5 401 L 41.5 404 L 43.5 401 Z " /><path fill="#000000" stroke="#000000" stroke-width="1" opacity="0.8352941176470589" d="M 468.5 401 L 470.5 404 L 468.5 401 Z " /><path fill="#000000" stroke="#000000" stroke-width="1" opacity="0.8352941176470589" d="M 40.5 405 L 39.5 407 L 40.5 405 Z " /><path fill="#000000" stroke="#000000" stroke-width="1" opacity="0.8352941176470589" d="M 216.5 405 L 215.5 407 L 216.5 405 Z " /><path fill="#000000" stroke="#000000" stroke-width="1" opacity="0.8352941176470589" d="M 295.5 405 L 296.5 407 L 295.5 405 Z " /><path fill="#000000" stroke="#000000" stroke-width="1" opacity="0.8352941176470589" d="M 471.5 405 L 472.5 407 L 471.5 405 Z " /><path fill="#000000" stroke="#000000" stroke-width="1" opacity="0.8352941176470589" d="M 72.5 417 L 71.5 419 L 72.5 417 Z " /><path fill="#000000" stroke="#000000" stroke-width="1" opacity="0.8352941176470589" d="M 87.5 417 L 88.5 419 L 87.5 417 Z " /><path fill="#000000" stroke="#000000" stroke-width="1" opacity="0.8352941176470589" d="M 248.5 417 L 247.5 419 L 248.5 417 Z " /><path fill="#000000" stroke="#000000" stroke-width="1" opacity="0.8352941176470589" d="M 263.5 417 L 264.5 419 L 263.5 417 Z " /><path fill="#000000" stroke="#000000" stroke-width="1" opacity="0.8352941176470589" d="M 424.5 417 L 423.5 419 L 424.5 417 Z " /><path fill="#000000" stroke="#000000" stroke-width="1" opacity="0.8352941176470589" d="M 439.5 417 L 440.5 419 L 439.5 417 Z " /><path fill="#000000" stroke="#000000" stroke-width="1" opacity="0.8352941176470589" d="M 90.5 419 L 92.5 422 L 90.5 419 Z " /><path fill="#000000" stroke="#000000" stroke-width="1" opacity="0.8352941176470589" d="M 266.5 419 L 268.5 422 L 266.5 419 Z " /><path fill="#000000" stroke="#000000" stroke-width="1" opacity="0.8352941176470589" d="M 442.5 419 L 444.5 422 L 442.5 419 Z " /><path fill="#000000" stroke="#000000" stroke-width="1" opacity="0.8352941176470589" d="M 68.5 420 L 67.5 422 L 68.5 420 Z " /><path fill="#000000" stroke="#000000" stroke-width="1" opacity="0.8352941176470589" d="M 244.5 420 L 243.5 422 L 244.5 420 Z " /><path fill="#000000" stroke="#000000" stroke-width="1" opacity="0.8352941176470589" d="M 420.5 420 L 419.5 422 L 420.5 420 Z " /><path fill="#000000" stroke="#000000" stroke-width="1" opacity="0.8352941176470589" d="M 66.5 423 L 65.5 425 L 66.5 423 Z " /><path fill="#000000" stroke="#000000" stroke-width="1" opacity="0.8352941176470589" d="M 93.5 423 L 94.5 425 L 93.5 423 Z " /><path fill="#000000" stroke="#000000" stroke-width="1" opacity="0.8352941176470589" d="M 242.5 423 L 241.5 425 L 242.5 423 Z " /><path fill="#000000" stroke="#000000" stroke-width="1" opacity="0.8352941176470589" d="M 269.5 423 L 270.5 425 L 269.5 423 Z " /><path fill="#000000" stroke="#000000" stroke-width="1" opacity="0.8352941176470589" d="M 418.5 423 L 417.5 425 L 418.5 423 Z " /><path fill="#000000" stroke="#000000" stroke-width="1" opacity="0.8352941176470589" d="M 445.5 423 L 446.5 425 L 445.5 423 Z " /><path fill="#000000" stroke="#000000" stroke-width="1" opacity="0.8352941176470589" d="M 32.5 425 L 33 429.5 L 32 429.5 L 32.5 425 Z " /><path fill="#000000" stroke="#000000" stroke-width="1" opacity="0.8352941176470589" d="M 127.5 425 L 128 429.5 L 127 429.5 L 127.5 425 Z " /><path fill="#000000" stroke="#000000" stroke-width="1" opacity="0.8352941176470589" d="M 208.5 425 L 209 429.5 L 208 429.5 L 208.5 425 Z " /><path fill="#000000" stroke="#000000" stroke-width="1" opacity="0.8352941176470589" d="M 303.5 425 L 304 429.5 L 303 429.5 L 303.5 425 Z " /><path fill="#000000" stroke="#000000" stroke-width="1" opacity="0.8352941176470589" d="M 384.5 425 L 385 428.5 L 384 428.5 L 384.5 425 Z " /><path fill="#000000" stroke="#000000" stroke-width="1" opacity="0.8352941176470589" d="M 479.5 425 L 480 429.5 L 479 429.5 L 479.5 425 Z " /><path fill="#000000" stroke="#000000" stroke-width="1" opacity="0.8352941176470589" d="M 32.5 434 L 33 438.5 L 32 438.5 L 32.5 434 Z " /><path fill="#000000" stroke="#000000" stroke-width="1" opacity="0.8352941176470589" d="M 127.5 434 L 128 438.5 L 127 438.5 L 127.5 434 Z " /><path fill="#000000" stroke="#000000" stroke-width="1" opacity="0.8352941176470589" d="M 208.5 434 L 209 438.5 L 208 438.5 L 208.5 434 Z " /><path fill="#000000" stroke="#000000" stroke-width="1" opacity="0.8352941176470589" d="M 303.5 434 L 304 438.5 L 303 438.5 L 303.5 434 Z " /><path fill="#000000" stroke="#000000" stroke-width="1" opacity="0.8352941176470589" d="M 384.5 434 L 385 438.5 L 384 438.5 L 384.5 434 Z " /><path fill="#000000" stroke="#000000" stroke-width="1" opacity="0.8352941176470589" d="M 479.5 434 L 480 438.5 L 479 438.5 L 479.5 434 Z " /><path fill="#000000" stroke="#000000" stroke-width="1" opacity="0.8352941176470589" d="M 65.5 439 L 66.5 441 L 65.5 439 Z " /><path fill="#000000" stroke="#000000" stroke-width="1" opacity="0.8352941176470589" d="M 94.5 439 L 93.5 441 L 94.5 439 Z " /><path fill="#000000" stroke="#000000" stroke-width="1" opacity="0.8352941176470589" d="M 241.5 439 L 242.5 441 L 241.5 439 Z " /><path fill="#000000" stroke="#000000" stroke-width="1" opacity="0.8352941176470589" d="M 270.5 439 L 269.5 441 L 270.5 439 Z " /><path fill="#000000" stroke="#000000" stroke-width="1" opacity="0.8352941176470589" d="M 417.5 439 L 418.5 441 L 417.5 439 Z " /><path fill="#000000" stroke="#000000" stroke-width="1" opacity="0.8352941176470589" d="M 446.5 439 L 445.5 441 L 446.5 439 Z " /><path fill="#000000" stroke="#000000" stroke-width="1" opacity="0.8352941176470589" d="M 67.5 442 L 68.5 444 L 67.5 442 Z " /><path fill="#000000" stroke="#000000" stroke-width="1" opacity="0.8352941176470589" d="M 92.5 442 L 90.5 445 L 92.5 442 Z " /><path fill="#000000" stroke="#000000" stroke-width="1" opacity="0.8352941176470589" d="M 243.5 442 L 244.5 444 L 243.5 442 Z " /><path fill="#000000" stroke="#000000" stroke-width="1" opacity="0.8352941176470589" d="M 268.5 442 L 266.5 445 L 268.5 442 Z " /><path fill="#000000" stroke="#000000" stroke-width="1" opacity="0.8352941176470589" d="M 419.5 442 L 420.5 444 L 419.5 442 Z " /><path fill="#000000" stroke="#000000" stroke-width="1" opacity="0.8352941176470589" d="M 444.5 442 L 442.5 445 L 444.5 442 Z " /><path fill="#000000" stroke="#000000" stroke-width="1" opacity="0.8352941176470589" d="M 71.5 445 L 72.5 447 L 71.5 445 Z " /><path fill="#000000" stroke="#000000" stroke-width="1" opacity="0.8352941176470589" d="M 88.5 445 L 87.5 447 L 88.5 445 Z " /><path fill="#000000" stroke="#000000" stroke-width="1" opacity="0.8352941176470589" d="M 247.5 445 L 248.5 447 L 247.5 445 Z " /><path fill="#000000" stroke="#000000" stroke-width="1" opacity="0.8352941176470589" d="M 264.5 445 L 263.5 447 L 264.5 445 Z " /><path fill="#000000" stroke="#000000" stroke-width="1" opacity="0.8352941176470589" d="M 423.5 445 L 424.5 447 L 423.5 445 Z " /><path fill="#000000" stroke="#000000" stroke-width="1" opacity="0.8352941176470589" d="M 440.5 445 L 439.5 447 L 440.5 445 Z " /><path fill="#000000" stroke="#000000" stroke-width="1" opacity="0.8352941176470589" d="M 39.5 457 L 40.5 459 L 39.5 457 Z " /><path fill="#000000" stroke="#000000" stroke-width="1" opacity="0.8352941176470589" d="M 120.5 457 L 119.5 459 L 120.5 457 Z " /><path fill="#000000" stroke="#000000" stroke-width="1" opacity="0.8352941176470589" d="M 215.5 457 L 216.5 459 L 215.5 457 Z " /><path fill="#000000" stroke="#000000" stroke-width="1" opacity="0.8352941176470589" d="M 296.5 457 L 295.5 459 L 296.5 457 Z " /><path fill="#000000" stroke="#000000" stroke-width="1" opacity="0.8352941176470589" d="M 391.5 457 L 392.5 459 L 391.5 457 Z " /><path fill="#000000" stroke="#000000" stroke-width="1" opacity="0.8352941176470589" d="M 472.5 457 L 471.5 459 L 472.5 457 Z " /><path fill="#000000" stroke="#000000" stroke-width="1" opacity="0.8352941176470589" d="M 41.5 460 L 43.5 463 L 41.5 460 Z " /><path fill="#000000" stroke="#000000" stroke-width="1" opacity="0.8352941176470589" d="M 118.5 460 L 116.5 463 L 118.5 460 Z " /><path fill="#000000" stroke="#000000" stroke-width="1" opacity="0.8352941176470589" d="M 217.5 460 L 219.5 463 L 217.5 460 Z " /><path fill="#000000" stroke="#000000" stroke-width="1" opacity="0.8352941176470589" d="M 294.5 460 L 292.5 463 L 294.5 460 Z " /><path fill="#000000" stroke="#000000" stroke-width="1" opacity="0.8352941176470589" d="M 393.5 460 L 395.5 463 L 393.5 460 Z " /><path fill="#000000" stroke="#000000" stroke-width="1" opacity="0.8352941176470589" d="M 470.5 460 L 468.5 463 L 470.5 460 Z " /><path fill="#000000" stroke="#000000" stroke-width="1" opacity="0.8352941176470589" d="M 49.5 468 L 51.5 471 L 49.5 468 Z " /><path fill="#000000" stroke="#000000" stroke-width="1" opacity="0.8352941176470589" d="M 110.5 468 L 108.5 471 L 110.5 468 Z " /><path fill="#000000" stroke="#000000" stroke-width="1" opacity="0.8352941176470589" d="M 225.5 468 L 227.5 471 L 225.5 468 Z " /><path fill="#000000" stroke="#000000" stroke-width="1" opacity="0.8352941176470589" d="M 286.5 468 L 284.5 471 L 286.5 468 Z " /><path fill="#000000" stroke="#000000" stroke-width="1" opacity="0.8352941176470589" d="M 401.5 468 L 403.5 471 L 401.5 468 Z " /><path fill="#000000" stroke="#000000" stroke-width="1" opacity="0.8352941176470589" d="M 462.5 468 L 460.5 471 L 462.5 468 Z " /><path fill="#000000" stroke="#000000" stroke-width="1" opacity="0.8352941176470589" d="M 53.5 471 L 54.5 473 L 53.5 471 Z " /><path fill="#000000" stroke="#000000" stroke-width="1" opacity="0.8352941176470589" d="M 106.5 471 L 105.5 473 L 106.5 471 Z " /><path fill="#000000" stroke="#000000" stroke-width="1" opacity="0.8352941176470589" d="M 229.5 471 L 230.5 473 L 229.5 471 Z " /><path fill="#000000" stroke="#000000" stroke-width="1" opacity="0.8352941176470589" d="M 282.5 471 L 281.5 473 L 282.5 471 Z " /><path fill="#000000" stroke="#000000" stroke-width="1" opacity="0.8352941176470589" d="M 405.5 471 L 406.5 473 L 405.5 471 Z " /><path fill="#000000" stroke="#000000" stroke-width="1" opacity="0.8352941176470589" d="M 458.5 471 L 457.5 473 L 458.5 471 Z " /><path fill="#000000" stroke="#000000" stroke-width="1" opacity="0.8352941176470589" d="M 73.5 479 L 78 479.5 L 73.5 480 L 73.5 479 Z " /><path fill="#000000" stroke="#000000" stroke-width="1" opacity="0.8352941176470589" d="M 82.5 479 L 87 479.5 L 82.5 480 L 82.5 479 Z " /><path fill="#000000" stroke="#000000" stroke-width="1" opacity="0.8352941176470589" d="M 249.5 479 L 254 479.5 L 249.5 480 L 249.5 479 Z " /><path fill="#000000" stroke="#000000" stroke-width="1" opacity="0.8352941176470589" d="M 258.5 479 L 263 479.5 L 258.5 480 L 258.5 479 Z " /><path fill="#000000" stroke="#000000" stroke-width="1" opacity="0.8352941176470589" d="M 425.5 479 L 430 479.5 L 425.5 480 L 425.5 479 Z " /><path fill="#000000" stroke="#000000" stroke-width="1" opacity="0.8352941176470589" d="M 434.5 479 L 439 479.5 L 434.5 480 L 434.5 479 Z " /><path fill="#000000" stroke="#000000" stroke-width="1" opacity="1" d="M 367.5 32 L 373.5 33 L 469.5 65 L 478 72.5 L 480 79.5 L 480 144.5 L 478 151.5 L 471.5 158 L 463.5 160 L 456.5 158 L 450 151.5 L 448 145.5 L 448 102 L 432 107 L 432 144.5 L 430 151.5 L 423.5 158 L 367.5 176 L 314.5 159 L 306 151.5 L 304 144.5 L 304 107 L 266.5 95 L 258 87.5 L 256 79.5 L 258 72.5 L 264.5 66 L 367.5 32 Z M 366 65 L 326 79 Q 322 78 323 81 L 366 95 L 371 95 L 411 81 Q 414 82 413 79 L 371 65 L 366 65 Z M 336 118 L 336 133 L 366 143 L 371 143 L 399 133 L 400 133 L 400 118 L 369 128 L 336 118 Z " /><path fill="#000000" stroke="#000000" stroke-width="1" opacity="1" d="M 254.5 128 L 265.5 129 L 272.5 131 Q 284.2 135.8 292 144.5 Q 303.2 155.8 304 177.5 L 301 192.5 Q 296.2 204.2 287.5 212 L 272.5 221 L 258 223.5 L 289.5 224 L 290.5 225 L 301.5 226 Q 315.3 230.7 324 240.5 Q 331.7 249.3 335 262.5 Q 333.3 268.8 336 270.5 L 336 304.5 L 334 311.5 L 327.5 318 L 320.5 320 L 191.5 320 L 184.5 318 L 178 311.5 L 176 305.5 L 176 270.5 L 179 255.5 Q 183.8 243.8 192.5 236 Q 201.3 228.3 214.5 225 L 254 223.5 L 239.5 221 Q 227.8 216.2 220 207.5 Q 208.8 196.2 208 174.5 L 211 159.5 Q 215.8 147.8 224.5 140 L 239.5 131 L 254.5 128 Z M 252 160 L 245 164 L 240 172 Q 239 182 243 187 L 252 192 Q 262 194 267 189 L 272 181 Q 274 170 269 166 Q 265 158 252 160 Z M 220 256 L 213 260 L 208 268 L 208 288 L 209 288 L 304 288 L 304 268 L 301 262 L 293 256 L 220 256 Z " /><path fill="#000000" stroke="#000000" stroke-width="1" opacity="1" d="M 159.5 336 Q 170.2 336.8 174 344.5 L 176 352.5 L 175 357.5 L 171 363.5 L 123 412.5 L 127 422.5 L 128 433.5 L 125 448.5 Q 120.2 460.2 111.5 468 Q 100.2 479.2 78.5 480 L 63.5 477 Q 51.8 472.2 44 463.5 Q 32.8 452.2 32 430.5 L 35 415.5 Q 39.8 403.8 48.5 396 Q 60 384.5 82.5 384 Q 84 386.5 89.5 385 L 100.5 389 L 148.5 341 L 154.5 337 L 159.5 336 Z M 76 416 L 69 420 L 64 428 Q 63 438 67 443 L 76 448 Q 86 450 91 445 L 96 437 Q 98 426 93 422 Q 89 414 76 416 Z " /><path fill="#000000" stroke="#000000" stroke-width="1" opacity="1" d="M 255.5 336 Q 266.2 336.8 270 344.5 L 272 351.5 L 272 388 Q 283.9 390.7 291 399.5 Q 303.2 410.8 304 433.5 L 301 448.5 Q 296.2 460.2 287.5 468 Q 276.2 479.2 254.5 480 L 239.5 477 Q 227.8 472.2 220 463.5 Q 208.8 452.2 208 430.5 L 211 415.5 Q 215.2 405.2 222.5 398 Q 229.2 390.4 240 388 L 240 350.5 Q 241.6 341.6 248.5 338 L 255.5 336 Z M 252 416 L 245 420 L 240 428 Q 239 438 243 443 L 252 448 Q 262 450 267 445 L 272 437 Q 274 426 269 422 Q 265 414 252 416 Z " /><path fill="#000000" stroke="#000000" stroke-width="1" opacity="1" d="M 351.5 336 L 357.5 337 L 363.5 341 L 412.5 389 L 422.5 385 L 433.5 384 L 448.5 387 Q 460.2 391.8 468 400.5 Q 479.2 411.8 480 433.5 L 477 448.5 Q 472.2 460.2 463.5 468 Q 452.2 479.2 430.5 480 L 415.5 477 Q 403.8 472.2 396 463.5 Q 384.5 452 384 429.5 Q 386.5 428 385 422.5 L 389 411.5 L 341 363.5 L 337 357.5 L 336 351.5 L 338 344.5 L 344.5 338 L 351.5 336 Z M 428 416 L 421 420 L 416 428 Q 415 438 419 443 L 428 448 Q 438 450 443 445 L 448 437 Q 450 426 445 422 Q 441 414 428 416 Z " /><path fill="#000000" stroke="#000000" stroke-width="1" opacity="0" d="M 0 0 L 512 0 L 512 512 L 0 512 L 0 0 Z M 365 32 L 264 66 Q 258 69 256 77 Q 255 85 258 89 L 266 95 L 304 107 L 304 148 L 306 153 L 314 159 L 365 176 L 372 176 L 425 158 Q 430 155 432 148 L 432 107 L 436 107 L 448 102 L 448 148 L 450 153 Q 453 158 461 160 Q 469 161 473 158 Q 478 155 480 148 L 480 77 L 478 72 L 473 66 L 466 63 L 376 33 L 365 32 Z M 250 128 Q 236 130 228 137 Q 212 148 208 170 L 209 188 L 217 205 Q 227 220 249 224 L 218 224 Q 204 226 196 233 Q 180 244 176 266 L 176 308 L 178 313 Q 181 318 189 320 L 324 320 L 329 318 Q 334 315 336 308 L 336 266 Q 334 252 327 244 Q 317 230 300 225 L 295 224 L 263 224 Q 276 222 285 215 Q 300 204 304 183 L 303 165 L 295 148 Q 287 136 274 131 L 263 128 L 250 128 Z M 157 336 L 152 338 L 101 389 L 87 384 L 69 385 L 52 393 Q 36 404 32 426 L 33 444 L 41 461 Q 52 476 74 480 L 92 479 L 109 471 Q 124 460 128 439 L 128 426 L 123 412 L 174 361 L 176 356 Q 177 348 174 344 Q 170 335 157 336 Z M 253 336 L 248 338 Q 242 341 240 349 L 240 387 L 227 394 Q 212 405 208 426 L 209 444 L 217 461 Q 228 476 250 480 L 268 479 L 285 471 Q 300 460 304 439 L 303 421 L 295 404 Q 287 391 272 387 L 272 349 L 270 344 Q 266 335 253 336 Z M 349 336 L 344 338 Q 338 341 336 349 Q 335 357 338 361 L 389 412 L 384 426 L 385 444 L 393 461 Q 404 476 426 480 L 444 479 L 461 471 Q 476 460 480 439 L 479 421 L 471 404 Q 460 388 439 384 L 426 384 L 412 389 L 361 338 Q 357 335 349 336 Z " /><path fill="#000000" stroke="#000000" stroke-width="1" opacity="0" d="M 366.5 65 L 369.5 65 L 412 79 Q 413.3 82 409.5 81 L 369.5 95 L 366.5 95 L 348.5 88 L 324 81 Q 322.8 78 326.5 79 L 366.5 65 Z " /><path fill="#000000" stroke="#000000" stroke-width="1" opacity="0" d="M 336.5 118 L 364.5 128 L 371.5 128 L 399.5 118 L 400 133 L 367.5 143 L 336 133 L 336.5 118 Z " /><path fill="#000000" stroke="#000000" stroke-width="1" opacity="0" d="M 252.5 160 Q 265 159 269 166.5 Q 273.2 170.3 272 179.5 L 265.5 189 Q 261.7 193.2 252.5 192 L 243 185.5 Q 238.8 181.7 240 172.5 L 246.5 163 L 252.5 160 Z " /><path fill="#000000" stroke="#000000" stroke-width="1" opacity="0" d="M 220.5 256 L 291.5 256 L 301 262.5 L 304 268.5 L 304 288 L 208.5 288 L 208 287.5 L 208 268.5 L 214.5 259 L 220.5 256 Z " /><path fill="#000000" stroke="#000000" stroke-width="1" opacity="0" d="M 76.5 416 Q 89 415 93 422.5 Q 97.2 426.3 96 435.5 L 89.5 445 Q 85.7 449.2 76.5 448 L 67 441.5 Q 62.8 437.7 64 428.5 L 70.5 419 L 76.5 416 Z " /><path fill="#000000" stroke="#000000" stroke-width="1" opacity="0" d="M 252.5 416 Q 265 415 269 422.5 Q 273.2 426.3 272 435.5 L 265.5 445 Q 261.7 449.2 252.5 448 L 243 441.5 Q 238.8 437.7 240 428.5 L 246.5 419 L 252.5 416 Z " /><path fill="#000000" stroke="#000000" stroke-width="1" opacity="0" d="M 428.5 416 Q 441 415 445 422.5 Q 449.2 426.3 448 435.5 L 441.5 445 Q 437.7 449.2 428.5 448 L 419 441.5 Q 414.8 437.7 416 428.5 L 422.5 419 L 428.5 416 Z " /></svg>