<svg fill="#000000" width="512" height="512" version="1.1" xmlns="http://www.w3.org/2000/svg" desc="Created with imagetracer.js version 1.2.6" ><path fill="#000000" stroke="#000000" stroke-width="1" opacity="0" d="M 0 0 L 314 0.5 L 305.5 2 L 293.5 7 Q 279.5 15 270 27.5 L 259 43.5 L 245 73.5 L 232 113.5 L 221 159.5 L 216.5 172 L 136.5 172 Q 128.8 174.3 124 179.5 L 119 189.5 L 119 198.5 Q 121.3 206.3 126.5 211 L 136.5 216 L 206 216 L 152 440.5 Q 147.6 453.6 138.5 462 L 127.5 468 L 118.5 468 Q 106.9 465.1 100 457.5 Q 87.1 443.4 81 422.5 L 74.5 416 Q 69 411 56.5 413 Q 49.1 415.1 45 420.5 Q 39.5 426 40 437.5 L 44 450.5 L 50 463.5 L 62 481.5 L 75.5 495 Q 89.5 508 113 511.5 L 0 512 L 0 0 Z " /><path fill="#000000" stroke="#000000" stroke-width="1" opacity="0" d="M 333.5 0 L 512 0 L 512 512 L 133 511.5 Q 161.8 506.3 176 486.5 Q 188.6 472.2 195 451.5 L 252 216 L 320.5 216 Q 328.3 213.8 333 208.5 L 338 198.5 L 338 189.5 Q 335.8 181.8 330.5 177 L 320.5 172 L 263 172 L 274 127.5 L 287 87.5 L 299 62.5 L 311.5 48 L 320.5 44 L 327.5 44 Q 334.9 46.1 339 51.5 Q 349.1 63.9 350 85.5 Q 352.6 92.9 358.5 97 L 367.5 101 L 374.5 101 Q 384.2 99.2 389 92.5 L 392 87.5 L 394 77.5 L 390 56.5 L 384 40.5 Q 377.4 27.1 367.5 17 L 357.5 9 Q 348 2.5 333.5 1 L 333.5 0 Z M 327 268 L 316 273 Q 309 277 307 287 L 307 298 L 313 310 L 357 361 L 310 417 L 304 429 L 304 438 L 308 447 L 316 453 L 326 456 L 332 456 L 343 451 L 352 442 L 388 395 L 426 446 Q 433 454 446 456 Q 458 456 465 450 Q 470 445 472 437 Q 473 423 467 417 L 418 360 L 464 307 L 469 296 Q 471 283 465 278 Q 460 270 449 268 L 442 268 L 430 274 L 418 287 L 389 326 L 356 283 L 344 271 L 334 268 L 327 268 Z " /><path fill="#000000" stroke="#000000" stroke-width="1" opacity="0.8862745098039215" d="M 319.5 0 L 323 0.5 L 319.5 1 L 319.5 0 Z " /><path fill="#000000" stroke="#000000" stroke-width="1" opacity="0.8862745098039215" d="M 324.5 0 L 329 0.5 L 324.5 1 L 324.5 0 Z " /><path fill="#000000" stroke="#000000" stroke-width="1" opacity="0.8862745098039215" d="M 286.5 12 L 285.5 14 L 286.5 12 Z " /><path fill="#000000" stroke="#000000" stroke-width="1" opacity="0.8862745098039215" d="M 362.5 13 L 365.5 17 L 362.5 13 Z " /><path fill="#000000" stroke="#000000" stroke-width="1" opacity="0.8862745098039215" d="M 281.5 16 L 272.5 26 L 281.5 16 Z " /><path fill="#000000" stroke="#000000" stroke-width="1" opacity="0.8862745098039215" d="M 368.5 19 L 372.5 24 L 368.5 19 Z " /><path fill="#000000" stroke="#000000" stroke-width="1" opacity="0.8862745098039215" d="M 374.5 26 L 375.5 28 L 374.5 26 Z " /><path fill="#000000" stroke="#000000" stroke-width="1" opacity="0.8862745098039215" d="M 270.5 28 L 269.5 30 L 270.5 28 Z " /><path fill="#000000" stroke="#000000" stroke-width="1" opacity="0.8862745098039215" d="M 322.5 43 L 325 43.5 L 322.5 44 L 322.5 43 Z " /><path fill="#000000" stroke="#000000" stroke-width="1" opacity="0.8862745098039215" d="M 335.5 47 L 338.5 51 L 335.5 47 Z " /><path fill="#000000" stroke="#000000" stroke-width="1" opacity="0.8862745098039215" d="M 310.5 48 L 308.5 51 L 310.5 48 Z " /><path fill="#000000" stroke="#000000" stroke-width="1" opacity="0.8862745098039215" d="M 305.5 53 L 304.5 55 L 305.5 53 Z " /><path fill="#000000" stroke="#000000" stroke-width="1" opacity="0.8862745098039215" d="M 262.5 171 L 263.5 172 L 318 172.5 L 263.5 173 L 262.5 171 Z " /><path fill="#000000" stroke="#000000" stroke-width="1" opacity="0.8862745098039215" d="M 139.5 172 L 218 172.5 L 139.5 173 L 139.5 172 Z " /><path fill="#000000" stroke="#000000" stroke-width="1" opacity="0.8862745098039215" d="M 119.5 192 L 120 195.5 L 119 195.5 L 119.5 192 Z " /><path fill="#000000" stroke="#000000" stroke-width="1" opacity="0.8862745098039215" d="M 337.5 192 L 338 195.5 L 337 195.5 L 337.5 192 Z " /><path fill="#000000" stroke="#000000" stroke-width="1" opacity="0.8862745098039215" d="M 139.5 215 L 207 215.5 L 139.5 216 L 139.5 215 Z " /><path fill="#000000" stroke="#000000" stroke-width="1" opacity="0.8862745098039215" d="M 252.5 215 L 318 215.5 L 252.5 216 L 252.5 215 Z " /><path fill="#000000" stroke="#000000" stroke-width="1" opacity="0.8862745098039215" d="M 344.5 272 L 345.5 274 L 344.5 272 Z " /><path fill="#000000" stroke="#000000" stroke-width="1" opacity="0.8862745098039215" d="M 432.5 272 L 431.5 274 L 432.5 272 Z " /><path fill="#000000" stroke="#000000" stroke-width="1" opacity="0.8862745098039215" d="M 348.5 275 L 352.5 280 L 348.5 275 Z " /><path fill="#000000" stroke="#000000" stroke-width="1" opacity="0.8862745098039215" d="M 427.5 276 L 426.5 278 L 427.5 276 Z " /><path fill="#000000" stroke="#000000" stroke-width="1" opacity="0.8862745098039215" d="M 421.5 283 L 420.5 285 L 421.5 283 Z " /><path fill="#000000" stroke="#000000" stroke-width="1" opacity="0.8862745098039215" d="M 307.5 287 L 308 289.5 L 307 289.5 L 307.5 287 Z " /><path fill="#000000" stroke="#000000" stroke-width="1" opacity="0.8862745098039215" d="M 418.5 287 L 417.5 289 L 418.5 287 Z " /><path fill="#000000" stroke="#000000" stroke-width="1" opacity="0.8862745098039215" d="M 468.5 288 L 469 293.5 L 468 293.5 L 468.5 288 Z " /><path fill="#000000" stroke="#000000" stroke-width="1" opacity="0.8862745098039215" d="M 415.5 291 L 414.5 293 L 415.5 291 Z " /><path fill="#000000" stroke="#000000" stroke-width="1" opacity="0.8862745098039215" d="M 408.5 300 L 407.5 302 L 408.5 300 Z " /><path fill="#000000" stroke="#000000" stroke-width="1" opacity="0.8862745098039215" d="M 405.5 304 L 404.5 306 L 405.5 304 Z " /><path fill="#000000" stroke="#000000" stroke-width="1" opacity="0.8862745098039215" d="M 464.5 304 L 463.5 306 L 464.5 304 Z " /><path fill="#000000" stroke="#000000" stroke-width="1" opacity="0.8862745098039215" d="M 402.5 308 L 401.5 310 L 402.5 308 Z " /><path fill="#000000" stroke="#000000" stroke-width="1" opacity="0.8862745098039215" d="M 461.5 308 L 459.5 311 L 461.5 308 Z " /><path fill="#000000" stroke="#000000" stroke-width="1" opacity="0.8862745098039215" d="M 315.5 311 L 316.5 313 L 315.5 311 Z " /><path fill="#000000" stroke="#000000" stroke-width="1" opacity="0.8862745098039215" d="M 455.5 315 L 453.5 318 L 455.5 315 Z " /><path fill="#000000" stroke="#000000" stroke-width="1" opacity="0.8862745098039215" d="M 320.5 317 L 323.5 321 L 320.5 317 Z " /><path fill="#000000" stroke="#000000" stroke-width="1" opacity="0.8862745098039215" d="M 395.5 317 L 394.5 319 L 395.5 317 Z " /><path fill="#000000" stroke="#000000" stroke-width="1" opacity="0.8862745098039215" d="M 392.5 321 L 391.5 323 L 392.5 321 Z " /><path fill="#000000" stroke="#000000" stroke-width="1" opacity="0.8862745098039215" d="M 449.5 322 L 447.5 325 L 449.5 322 Z " /><path fill="#000000" stroke="#000000" stroke-width="1" opacity="0.8862745098039215" d="M 327.5 325 L 329.5 328 L 327.5 325 Z " /><path fill="#000000" stroke="#000000" stroke-width="1" opacity="0.8862745098039215" d="M 389.5 325 L 388.5 327 L 389.5 325 Z " /><path fill="#000000" stroke="#000000" stroke-width="1" opacity="0.8862745098039215" d="M 443.5 329 L 441.5 332 L 443.5 329 Z " /><path fill="#000000" stroke="#000000" stroke-width="1" opacity="0.8862745098039215" d="M 334.5 333 L 336.5 336 L 334.5 333 Z " /><path fill="#000000" stroke="#000000" stroke-width="1" opacity="0.8862745098039215" d="M 438.5 335 L 436.5 338 L 438.5 335 Z " /><path fill="#000000" stroke="#000000" stroke-width="1" opacity="0.8862745098039215" d="M 340.5 340 L 342.5 343 L 340.5 340 Z " /><path fill="#000000" stroke="#000000" stroke-width="1" opacity="0.8862745098039215" d="M 432.5 342 L 430.5 345 L 432.5 342 Z " /><path fill="#000000" stroke="#000000" stroke-width="1" opacity="0.8862745098039215" d="M 347.5 348 L 349.5 351 L 347.5 348 Z " /><path fill="#000000" stroke="#000000" stroke-width="1" opacity="0.8862745098039215" d="M 426.5 349 L 424.5 352 L 426.5 349 Z " /><path fill="#000000" stroke="#000000" stroke-width="1" opacity="0.8862745098039215" d="M 353.5 355 L 356.5 359 L 353.5 355 Z " /><path fill="#000000" stroke="#000000" stroke-width="1" opacity="0.8862745098039215" d="M 420.5 356 L 418.5 359 L 420.5 356 Z " /><path fill="#000000" stroke="#000000" stroke-width="1" opacity="0.8862745098039215" d="M 357.5 361 L 355.5 364 L 357.5 361 Z " /><path fill="#000000" stroke="#000000" stroke-width="1" opacity="0.8862745098039215" d="M 418.5 361 L 421.5 365 L 418.5 361 Z " /><path fill="#000000" stroke="#000000" stroke-width="1" opacity="0.8862745098039215" d="M 352.5 367 L 350.5 370 L 352.5 367 Z " /><path fill="#000000" stroke="#000000" stroke-width="1" opacity="0.8862745098039215" d="M 425.5 369 L 428.5 373 L 425.5 369 Z " /><path fill="#000000" stroke="#000000" stroke-width="1" opacity="0.8862745098039215" d="M 346.5 374 L 344.5 377 L 346.5 374 Z " /><path fill="#000000" stroke="#000000" stroke-width="1" opacity="0.8862745098039215" d="M 432.5 377 L 434.5 380 L 432.5 377 Z " /><path fill="#000000" stroke="#000000" stroke-width="1" opacity="0.8862745098039215" d="M 341.5 380 L 339.5 383 L 341.5 380 Z " /><path fill="#000000" stroke="#000000" stroke-width="1" opacity="0.8862745098039215" d="M 438.5 384 L 441.5 388 L 438.5 384 Z " /><path fill="#000000" stroke="#000000" stroke-width="1" opacity="0.8862745098039215" d="M 335.5 387 L 333.5 390 L 335.5 387 Z " /><path fill="#000000" stroke="#000000" stroke-width="1" opacity="0.8862745098039215" d="M 445.5 392 L 448.5 396 L 445.5 392 Z " /><path fill="#000000" stroke="#000000" stroke-width="1" opacity="0.8862745098039215" d="M 330.5 393 L 328.5 396 L 330.5 393 Z " /><path fill="#000000" stroke="#000000" stroke-width="1" opacity="0.8862745098039215" d="M 388.5 395 L 389.5 397 L 388.5 395 Z " /><path fill="#000000" stroke="#000000" stroke-width="1" opacity="0.8862745098039215" d="M 384.5 397 L 383.5 399 L 384.5 397 Z " /><path fill="#000000" stroke="#000000" stroke-width="1" opacity="0.8862745098039215" d="M 391.5 399 L 392.5 401 L 391.5 399 Z " /><path fill="#000000" stroke="#000000" stroke-width="1" opacity="0.8862745098039215" d="M 324.5 400 L 323.5 402 L 324.5 400 Z " /><path fill="#000000" stroke="#000000" stroke-width="1" opacity="0.8862745098039215" d="M 452.5 400 L 454.5 403 L 452.5 400 Z " /><path fill="#000000" stroke="#000000" stroke-width="1" opacity="0.8862745098039215" d="M 394.5 403 L 395.5 405 L 394.5 403 Z " /><path fill="#000000" stroke="#000000" stroke-width="1" opacity="0.8862745098039215" d="M 319.5 406 L 317.5 409 L 319.5 406 Z " /><path fill="#000000" stroke="#000000" stroke-width="1" opacity="0.8862745098039215" d="M 458.5 407 L 461.5 411 L 458.5 407 Z " /><path fill="#000000" stroke="#000000" stroke-width="1" opacity="0.8862745098039215" d="M 374.5 410 L 373.5 412 L 374.5 410 Z " /><path fill="#000000" stroke="#000000" stroke-width="1" opacity="0.8862745098039215" d="M 313.5 413 L 312.5 415 L 313.5 413 Z " /><path fill="#000000" stroke="#000000" stroke-width="1" opacity="0.8862745098039215" d="M 371.5 414 L 370.5 416 L 371.5 414 Z " /><path fill="#000000" stroke="#000000" stroke-width="1" opacity="0.8862745098039215" d="M 464.5 414 L 465.5 416 L 464.5 414 Z " /><path fill="#000000" stroke="#000000" stroke-width="1" opacity="0.8862745098039215" d="M 404.5 416 L 405.5 418 L 404.5 416 Z " /><path fill="#000000" stroke="#000000" stroke-width="1" opacity="0.8862745098039215" d="M 76.5 418 L 78.5 421 L 76.5 418 Z " /><path fill="#000000" stroke="#000000" stroke-width="1" opacity="0.8862745098039215" d="M 309.5 418 L 308.5 420 L 309.5 418 Z " /><path fill="#000000" stroke="#000000" stroke-width="1" opacity="0.8862745098039215" d="M 368.5 418 L 367.5 420 L 368.5 418 Z " /><path fill="#000000" stroke="#000000" stroke-width="1" opacity="0.8862745098039215" d="M 407.5 420 L 408.5 422 L 407.5 420 Z " /><path fill="#000000" stroke="#000000" stroke-width="1" opacity="0.8862745098039215" d="M 365.5 422 L 364.5 424 L 365.5 422 Z " /><path fill="#000000" stroke="#000000" stroke-width="1" opacity="0.8862745098039215" d="M 410.5 424 L 411.5 426 L 410.5 424 Z " /><path fill="#000000" stroke="#000000" stroke-width="1" opacity="0.8862745098039215" d="M 413.5 428 L 414.5 430 L 413.5 428 Z " /><path fill="#000000" stroke="#000000" stroke-width="1" opacity="0.8862745098039215" d="M 304.5 432 L 305 434.5 L 304 434.5 L 304.5 432 Z " /><path fill="#000000" stroke="#000000" stroke-width="1" opacity="0.8862745098039215" d="M 355.5 435 L 354.5 437 L 355.5 435 Z " /><path fill="#000000" stroke="#000000" stroke-width="1" opacity="0.8862745098039215" d="M 420.5 437 L 421.5 439 L 420.5 437 Z " /><path fill="#000000" stroke="#000000" stroke-width="1" opacity="0.8862745098039215" d="M 352.5 439 L 351.5 441 L 352.5 439 Z " /><path fill="#000000" stroke="#000000" stroke-width="1" opacity="0.8862745098039215" d="M 423.5 441 L 425.5 444 L 423.5 441 Z " /><path fill="#000000" stroke="#000000" stroke-width="1" opacity="0.8862745098039215" d="M 347.5 445 L 345.5 448 L 347.5 445 Z " /><path fill="#000000" stroke="#000000" stroke-width="1" opacity="0.8862745098039215" d="M 467.5 445 L 465.5 448 L 467.5 445 Z " /><path fill="#000000" stroke="#000000" stroke-width="1" opacity="0.8862745098039215" d="M 430.5 448 L 431.5 450 L 430.5 448 Z " /><path fill="#000000" stroke="#000000" stroke-width="1" opacity="0.8862745098039215" d="M 463.5 449 L 462.5 451 L 463.5 449 Z " /><path fill="#000000" stroke="#000000" stroke-width="1" opacity="0.8862745098039215" d="M 313.5 450 L 314.5 452 L 313.5 450 Z " /><path fill="#000000" stroke="#000000" stroke-width="1" opacity="0.8862745098039215" d="M 341.5 450 L 340.5 452 L 341.5 450 Z " /><path fill="#000000" stroke="#000000" stroke-width="1" opacity="0.8862745098039215" d="M 95.5 452 L 96.5 454 L 95.5 452 Z " /><path fill="#000000" stroke="#000000" stroke-width="1" opacity="0.8862745098039215" d="M 141.5 459 L 139.5 462 L 141.5 459 Z " /><path fill="#000000" stroke="#000000" stroke-width="1" opacity="0.8862745098039215" d="M 121.5 468 L 126 468.5 L 121.5 469 L 121.5 468 Z " /><path fill="#000000" stroke="#000000" stroke-width="1" opacity="0.8862745098039215" d="M 184.5 473 L 183.5 475 L 184.5 473 Z " /><path fill="#000000" stroke="#000000" stroke-width="1" opacity="0.8862745098039215" d="M 58.5 475 L 59.5 477 L 58.5 475 Z " /><path fill="#000000" stroke="#000000" stroke-width="1" opacity="0.8862745098039215" d="M 61.5 479 L 62.5 481 L 61.5 479 Z " /><path fill="#000000" stroke="#000000" stroke-width="1" opacity="0.8862745098039215" d="M 178.5 482 L 176.5 485 L 178.5 482 Z " /><path fill="#000000" stroke="#000000" stroke-width="1" opacity="0.8862745098039215" d="M 66.5 485 L 72.5 492 L 66.5 485 Z " /><path fill="#000000" stroke="#000000" stroke-width="1" opacity="0.8862745098039215" d="M 173.5 488 L 166.5 496 L 173.5 488 Z " /><path fill="#000000" stroke="#000000" stroke-width="1" opacity="0.8862745098039215" d="M 77.5 495 L 78.5 497 L 77.5 495 Z " /><path fill="#000000" stroke="#000000" stroke-width="1" opacity="0.8862745098039215" d="M 159.5 500 L 158.5 502 L 159.5 500 Z " /><path fill="#000000" stroke="#000000" stroke-width="1" opacity="0.8862745098039215" d="M 118.5 511 L 122 511.5 L 118.5 512 L 118.5 511 Z " /><path fill="#000000" stroke="#000000" stroke-width="1" opacity="0.8862745098039215" d="M 124.5 511 L 129 511.5 L 124.5 512 L 124.5 511 Z " /><path fill="#000000" stroke="#000000" stroke-width="1" opacity="1" d="M 323.5 0 L 324.5 1 L 334.5 1 L 348.5 5 Q 359.8 10.2 368 18.5 Q 381.3 32.2 388 52.5 L 392 68.5 L 393 81.5 Q 391.2 91.2 384.5 96 Q 379.2 101.7 366.5 100 Q 358.2 97.9 354 91.5 L 350 82.5 L 350 77.5 L 346 62.5 Q 342.5 53 335.5 47 Q 330.8 43.2 322.5 43 Q 309.9 45.4 304 54.5 L 296 66.5 L 283 96.5 L 272 132.5 L 262 171.5 L 263.5 173 L 321.5 173 Q 328.9 175.1 333 180.5 Q 338.8 186.2 337 199.5 Q 334.9 206.9 329.5 211 L 321.5 215 L 252.5 215 L 251 216.5 L 194 452.5 Q 184.5 481 163.5 498 L 145.5 508 L 134.5 511 Q 126.3 509.3 122.5 512 L 121.5 511 L 106.5 510 L 88.5 503 Q 73.4 494.6 63 481.5 Q 52.2 468.3 45 451.5 L 41 439.5 L 41 429.5 Q 43.1 422.1 48.5 418 Q 53.7 412.7 64.5 413 Q 75.3 414.7 80 422.5 L 92 448.5 L 105.5 463 L 112.5 467 L 125.5 469 Q 136 466.5 142 459.5 Q 149.1 451.1 153 439.5 L 207 215 L 135.5 215 Q 128.1 212.9 124 207.5 Q 118.2 201.8 120 188.5 Q 122.1 181.1 127.5 177 L 135.5 173 L 218 173 L 233 112.5 L 245 75.5 L 252 58.5 Q 263.6 31.6 284.5 14 L 304.5 3 L 312.5 1 L 322.5 1 L 323.5 0 Z " /><path fill="#000000" stroke="#000000" stroke-width="1" opacity="1" d="M 325.5 269 Q 335.8 267.8 341.5 271 L 356 283.5 L 388.5 327 L 422 282.5 L 430.5 274 L 440.5 269 L 450.5 269 Q 460.1 271.4 465 278.5 Q 470 284 468 296.5 L 463 306.5 L 418 358.5 L 418 361.5 L 467 417.5 Q 472.7 423.8 471 437.5 L 465 449 L 456.5 454 L 443.5 455 Q 432.3 452.3 426 444.5 L 387.5 394 Q 385.3 393.3 386 395.5 L 351 441.5 L 342.5 450 L 332.5 455 L 323.5 455 Q 313.4 452.6 308 445.5 Q 303.4 439.6 305 427.5 L 310 417.5 L 358 360.5 L 313 308.5 Q 307.5 302 307 290.5 L 311 278.5 L 316.5 273 L 325.5 269 Z " /><path fill="#000000" stroke="#000000" stroke-width="1" opacity="0.4549019607843137" d="M 314.5 0 L 319 0.5 L 314.5 1 L 314.5 0 Z " /><path fill="#000000" stroke="#000000" stroke-width="1" opacity="0.4549019607843137" d="M 329.5 0 L 333 0.5 L 329.5 1 L 329.5 0 Z " /><path fill="#000000" stroke="#000000" stroke-width="1" opacity="0.4549019607843137" d="M 336.5 1 L 339 1.5 L 336.5 2 L 336.5 1 Z " /><path fill="#000000" stroke="#000000" stroke-width="1" opacity="0.4549019607843137" d="M 293.5 7 L 292.5 9 L 293.5 7 Z " /><path fill="#000000" stroke="#000000" stroke-width="1" opacity="0.4549019607843137" d="M 357.5 9 L 358.5 11 L 357.5 9 Z " /><path fill="#000000" stroke="#000000" stroke-width="1" opacity="0.4549019607843137" d="M 284.5 13 L 282.5 16 L 284.5 13 Z " /><path fill="#000000" stroke="#000000" stroke-width="1" opacity="0.4549019607843137" d="M 367.5 17 L 368.5 19 L 367.5 17 Z " /><path fill="#000000" stroke="#000000" stroke-width="1" opacity="0.4549019607843137" d="M 271.5 26 L 270.5 28 L 271.5 26 Z " /><path fill="#000000" stroke="#000000" stroke-width="1" opacity="0.4549019607843137" d="M 268.5 30 L 267.5 32 L 268.5 30 Z " /><path fill="#000000" stroke="#000000" stroke-width="1" opacity="0.4549019607843137" d="M 333.5 46 L 334.5 48 L 333.5 46 Z " /><path fill="#000000" stroke="#000000" stroke-width="1" opacity="0.4549019607843137" d="M 307.5 51 L 306.5 53 L 307.5 51 Z " /><path fill="#000000" stroke="#000000" stroke-width="1" opacity="0.4549019607843137" d="M 339.5 52 L 340.5 54 L 339.5 52 Z " /><path fill="#000000" stroke="#000000" stroke-width="1" opacity="0.4549019607843137" d="M 303.5 56 L 302.5 58 L 303.5 56 Z " /><path fill="#000000" stroke="#000000" stroke-width="1" opacity="0.4549019607843137" d="M 392.5 70 L 393 72.5 L 392 72.5 L 392.5 70 Z " /><path fill="#000000" stroke="#000000" stroke-width="1" opacity="0.4549019607843137" d="M 353.5 91 L 355.5 94 L 353.5 91 Z " /><path fill="#000000" stroke="#000000" stroke-width="1" opacity="0.4549019607843137" d="M 388.5 92 L 384.5 97 L 388.5 92 Z " /><path fill="#000000" stroke="#000000" stroke-width="1" opacity="0.4549019607843137" d="M 357.5 95 L 358.5 97 L 357.5 95 Z " /><path fill="#000000" stroke="#000000" stroke-width="1" opacity="0.4549019607843137" d="M 367.5 100 L 375 100.5 L 367.5 101 L 367.5 100 Z " /><path fill="#000000" stroke="#000000" stroke-width="1" opacity="0.4549019607843137" d="M 136.5 172 L 139 172.5 L 136.5 173 L 136.5 172 Z " /><path fill="#000000" stroke="#000000" stroke-width="1" opacity="0.4549019607843137" d="M 318.5 172 L 321 172.5 L 318.5 173 L 318.5 172 Z " /><path fill="#000000" stroke="#000000" stroke-width="1" opacity="0.4549019607843137" d="M 126.5 177 L 124.5 180 L 126.5 177 Z " /><path fill="#000000" stroke="#000000" stroke-width="1" opacity="0.4549019607843137" d="M 330.5 177 L 332.5 180 L 330.5 177 Z " /><path fill="#000000" stroke="#000000" stroke-width="1" opacity="0.4549019607843137" d="M 119.5 189 L 120 191.5 L 119 191.5 L 119.5 189 Z " /><path fill="#000000" stroke="#000000" stroke-width="1" opacity="0.4549019607843137" d="M 337.5 189 L 338 191.5 L 337 191.5 L 337.5 189 Z " /><path fill="#000000" stroke="#000000" stroke-width="1" opacity="0.4549019607843137" d="M 119.5 196 L 120 198.5 L 119 198.5 L 119.5 196 Z " /><path fill="#000000" stroke="#000000" stroke-width="1" opacity="0.4549019607843137" d="M 337.5 196 L 338 198.5 L 337 198.5 L 337.5 196 Z " /><path fill="#000000" stroke="#000000" stroke-width="1" opacity="0.4549019607843137" d="M 124.5 208 L 126.5 211 L 124.5 208 Z " /><path fill="#000000" stroke="#000000" stroke-width="1" opacity="0.4549019607843137" d="M 332.5 208 L 330.5 211 L 332.5 208 Z " /><path fill="#000000" stroke="#000000" stroke-width="1" opacity="0.4549019607843137" d="M 136.5 215 L 139 215.5 L 136.5 216 L 136.5 215 Z " /><path fill="#000000" stroke="#000000" stroke-width="1" opacity="0.4549019607843137" d="M 318.5 215 L 321 215.5 L 318.5 216 L 318.5 215 Z " /><path fill="#000000" stroke="#000000" stroke-width="1" opacity="0.4549019607843137" d="M 326.5 268 L 334 268.5 L 326.5 269 L 326.5 268 Z " /><path fill="#000000" stroke="#000000" stroke-width="1" opacity="0.4549019607843137" d="M 441.5 268 L 449 268.5 L 441.5 269 L 441.5 268 Z " /><path fill="#000000" stroke="#000000" stroke-width="1" opacity="0.4549019607843137" d="M 315.5 273 L 311.5 278 L 315.5 273 Z " /><path fill="#000000" stroke="#000000" stroke-width="1" opacity="0.4549019607843137" d="M 346.5 273 L 347.5 275 L 346.5 273 Z " /><path fill="#000000" stroke="#000000" stroke-width="1" opacity="0.4549019607843137" d="M 460.5 273 L 464.5 278 L 460.5 273 Z " /><path fill="#000000" stroke="#000000" stroke-width="1" opacity="0.4549019607843137" d="M 429.5 274 L 428.5 276 L 429.5 274 Z " /><path fill="#000000" stroke="#000000" stroke-width="1" opacity="0.4549019607843137" d="M 425.5 278 L 422.5 282 L 425.5 278 Z " /><path fill="#000000" stroke="#000000" stroke-width="1" opacity="0.4549019607843137" d="M 353.5 280 L 355.5 283 L 353.5 280 Z " /><path fill="#000000" stroke="#000000" stroke-width="1" opacity="0.4549019607843137" d="M 357.5 285 L 358.5 287 L 357.5 285 Z " /><path fill="#000000" stroke="#000000" stroke-width="1" opacity="0.4549019607843137" d="M 419.5 285 L 418.5 287 L 419.5 285 Z " /><path fill="#000000" stroke="#000000" stroke-width="1" opacity="0.4549019607843137" d="M 468.5 285 L 469 287.5 L 468 287.5 L 468.5 285 Z " /><path fill="#000000" stroke="#000000" stroke-width="1" opacity="0.4549019607843137" d="M 360.5 289 L 361.5 291 L 360.5 289 Z " /><path fill="#000000" stroke="#000000" stroke-width="1" opacity="0.4549019607843137" d="M 416.5 289 L 415.5 291 L 416.5 289 Z " /><path fill="#000000" stroke="#000000" stroke-width="1" opacity="0.4549019607843137" d="M 363.5 293 L 364.5 295 L 363.5 293 Z " /><path fill="#000000" stroke="#000000" stroke-width="1" opacity="0.4549019607843137" d="M 413.5 293 L 412.5 295 L 413.5 293 Z " /><path fill="#000000" stroke="#000000" stroke-width="1" opacity="0.4549019607843137" d="M 366.5 297 L 367.5 299 L 366.5 297 Z " /><path fill="#000000" stroke="#000000" stroke-width="1" opacity="0.4549019607843137" d="M 410.5 297 L 409.5 299 L 410.5 297 Z " /><path fill="#000000" stroke="#000000" stroke-width="1" opacity="0.4549019607843137" d="M 369.5 301 L 370.5 303 L 369.5 301 Z " /><path fill="#000000" stroke="#000000" stroke-width="1" opacity="0.4549019607843137" d="M 406.5 302 L 405.5 304 L 406.5 302 Z " /><path fill="#000000" stroke="#000000" stroke-width="1" opacity="0.4549019607843137" d="M 372.5 305 L 373.5 307 L 372.5 305 Z " /><path fill="#000000" stroke="#000000" stroke-width="1" opacity="0.4549019607843137" d="M 403.5 306 L 402.5 308 L 403.5 306 Z " /><path fill="#000000" stroke="#000000" stroke-width="1" opacity="0.4549019607843137" d="M 463.5 306 L 462.5 308 L 463.5 306 Z " /><path fill="#000000" stroke="#000000" stroke-width="1" opacity="0.4549019607843137" d="M 313.5 309 L 314.5 311 L 313.5 309 Z " /><path fill="#000000" stroke="#000000" stroke-width="1" opacity="0.4549019607843137" d="M 375.5 309 L 376.5 311 L 375.5 309 Z " /><path fill="#000000" stroke="#000000" stroke-width="1" opacity="0.4549019607843137" d="M 400.5 310 L 399.5 312 L 400.5 310 Z " /><path fill="#000000" stroke="#000000" stroke-width="1" opacity="0.4549019607843137" d="M 458.5 312 L 456.5 315 L 458.5 312 Z " /><path fill="#000000" stroke="#000000" stroke-width="1" opacity="0.4549019607843137" d="M 378.5 313 L 379.5 315 L 378.5 313 Z " /><path fill="#000000" stroke="#000000" stroke-width="1" opacity="0.4549019607843137" d="M 317.5 314 L 319.5 317 L 317.5 314 Z " /><path fill="#000000" stroke="#000000" stroke-width="1" opacity="0.4549019607843137" d="M 397.5 314 L 396.5 316 L 397.5 314 Z " /><path fill="#000000" stroke="#000000" stroke-width="1" opacity="0.4549019607843137" d="M 381.5 317 L 382.5 319 L 381.5 317 Z " /><path fill="#000000" stroke="#000000" stroke-width="1" opacity="0.4549019607843137" d="M 453.5 318 L 450.5 322 L 453.5 318 Z " /><path fill="#000000" stroke="#000000" stroke-width="1" opacity="0.4549019607843137" d="M 393.5 319 L 392.5 321 L 393.5 319 Z " /><path fill="#000000" stroke="#000000" stroke-width="1" opacity="0.4549019607843137" d="M 323.5 321 L 326.5 325 L 323.5 321 Z " /><path fill="#000000" stroke="#000000" stroke-width="1" opacity="0.4549019607843137" d="M 384.5 321 L 385.5 323 L 384.5 321 Z " /><path fill="#000000" stroke="#000000" stroke-width="1" opacity="0.4549019607843137" d="M 390.5 323 L 389.5 325 L 390.5 323 Z " /><path fill="#000000" stroke="#000000" stroke-width="1" opacity="0.4549019607843137" d="M 447.5 325 L 444.5 329 L 447.5 325 Z " /><path fill="#000000" stroke="#000000" stroke-width="1" opacity="0.4549019607843137" d="M 330.5 329 L 333.5 333 L 330.5 329 Z " /><path fill="#000000" stroke="#000000" stroke-width="1" opacity="0.4549019607843137" d="M 441.5 332 L 439.5 335 L 441.5 332 Z " /><path fill="#000000" stroke="#000000" stroke-width="1" opacity="0.4549019607843137" d="M 337.5 337 L 339.5 340 L 337.5 337 Z " /><path fill="#000000" stroke="#000000" stroke-width="1" opacity="0.4549019607843137" d="M 435.5 339 L 433.5 342 L 435.5 339 Z " /><path fill="#000000" stroke="#000000" stroke-width="1" opacity="0.4549019607843137" d="M 343.5 344 L 346.5 348 L 343.5 344 Z " /><path fill="#000000" stroke="#000000" stroke-width="1" opacity="0.4549019607843137" d="M 429.5 346 L 427.5 349 L 429.5 346 Z " /><path fill="#000000" stroke="#000000" stroke-width="1" opacity="0.4549019607843137" d="M 350.5 352 L 352.5 355 L 350.5 352 Z " /><path fill="#000000" stroke="#000000" stroke-width="1" opacity="0.4549019607843137" d="M 423.5 353 L 421.5 356 L 423.5 353 Z " /><path fill="#000000" stroke="#000000" stroke-width="1" opacity="0.4549019607843137" d="M 356.5 359 L 357.5 361 L 356.5 359 Z " /><path fill="#000000" stroke="#000000" stroke-width="1" opacity="0.4549019607843137" d="M 354.5 364 L 352.5 367 L 354.5 364 Z " /><path fill="#000000" stroke="#000000" stroke-width="1" opacity="0.4549019607843137" d="M 422.5 365 L 425.5 369 L 422.5 365 Z " /><path fill="#000000" stroke="#000000" stroke-width="1" opacity="0.4549019607843137" d="M 349.5 370 L 347.5 373 L 349.5 370 Z " /><path fill="#000000" stroke="#000000" stroke-width="1" opacity="0.4549019607843137" d="M 429.5 373 L 431.5 376 L 429.5 373 Z " /><path fill="#000000" stroke="#000000" stroke-width="1" opacity="0.4549019607843137" d="M 343.5 377 L 341.5 380 L 343.5 377 Z " /><path fill="#000000" stroke="#000000" stroke-width="1" opacity="0.4549019607843137" d="M 435.5 380 L 438.5 384 L 435.5 380 Z " /><path fill="#000000" stroke="#000000" stroke-width="1" opacity="0.4549019607843137" d="M 338.5 383 L 336.5 386 L 338.5 383 Z " /><path fill="#000000" stroke="#000000" stroke-width="1" opacity="0.4549019607843137" d="M 442.5 388 L 445.5 392 L 442.5 388 Z " /><path fill="#000000" stroke="#000000" stroke-width="1" opacity="0.4549019607843137" d="M 332.5 390 L 330.5 393 L 332.5 390 Z " /><path fill="#000000" stroke="#000000" stroke-width="1" opacity="0.4549019607843137" d="M 387.5 394 L 385.5 397 L 387.5 394 Z " /><path fill="#000000" stroke="#000000" stroke-width="1" opacity="0.4549019607843137" d="M 327.5 396 L 325.5 399 L 327.5 396 Z " /><path fill="#000000" stroke="#000000" stroke-width="1" opacity="0.4549019607843137" d="M 449.5 396 L 451.5 399 L 449.5 396 Z " /><path fill="#000000" stroke="#000000" stroke-width="1" opacity="0.4549019607843137" d="M 389.5 397 L 390.5 399 L 389.5 397 Z " /><path fill="#000000" stroke="#000000" stroke-width="1" opacity="0.4549019607843137" d="M 382.5 400 L 381.5 402 L 382.5 400 Z " /><path fill="#000000" stroke="#000000" stroke-width="1" opacity="0.4549019607843137" d="M 392.5 401 L 393.5 403 L 392.5 401 Z " /><path fill="#000000" stroke="#000000" stroke-width="1" opacity="0.4549019607843137" d="M 322.5 402 L 319.5 406 L 322.5 402 Z " /><path fill="#000000" stroke="#000000" stroke-width="1" opacity="0.4549019607843137" d="M 455.5 403 L 458.5 407 L 455.5 403 Z " /><path fill="#000000" stroke="#000000" stroke-width="1" opacity="0.4549019607843137" d="M 379.5 404 L 378.5 406 L 379.5 404 Z " /><path fill="#000000" stroke="#000000" stroke-width="1" opacity="0.4549019607843137" d="M 396.5 406 L 397.5 408 L 396.5 406 Z " /><path fill="#000000" stroke="#000000" stroke-width="1" opacity="0.4549019607843137" d="M 376.5 408 L 375.5 410 L 376.5 408 Z " /><path fill="#000000" stroke="#000000" stroke-width="1" opacity="0.4549019607843137" d="M 316.5 409 L 314.5 412 L 316.5 409 Z " /><path fill="#000000" stroke="#000000" stroke-width="1" opacity="0.4549019607843137" d="M 399.5 410 L 400.5 412 L 399.5 410 Z " /><path fill="#000000" stroke="#000000" stroke-width="1" opacity="0.4549019607843137" d="M 462.5 411 L 463.5 413 L 462.5 411 Z " /><path fill="#000000" stroke="#000000" stroke-width="1" opacity="0.4549019607843137" d="M 373.5 412 L 372.5 414 L 373.5 412 Z " /><path fill="#000000" stroke="#000000" stroke-width="1" opacity="0.4549019607843137" d="M 402.5 414 L 403.5 416 L 402.5 414 Z " /><path fill="#000000" stroke="#000000" stroke-width="1" opacity="0.4549019607843137" d="M 51.5 415 L 50.5 417 L 51.5 415 Z " /><path fill="#000000" stroke="#000000" stroke-width="1" opacity="0.4549019607843137" d="M 311.5 415 L 310.5 417 L 311.5 415 Z " /><path fill="#000000" stroke="#000000" stroke-width="1" opacity="0.4549019607843137" d="M 74.5 416 L 75.5 418 L 74.5 416 Z " /><path fill="#000000" stroke="#000000" stroke-width="1" opacity="0.4549019607843137" d="M 370.5 416 L 369.5 418 L 370.5 416 Z " /><path fill="#000000" stroke="#000000" stroke-width="1" opacity="0.4549019607843137" d="M 48.5 417 L 45.5 421 L 48.5 417 Z " /><path fill="#000000" stroke="#000000" stroke-width="1" opacity="0.4549019607843137" d="M 405.5 418 L 406.5 420 L 405.5 418 Z " /><path fill="#000000" stroke="#000000" stroke-width="1" opacity="0.4549019607843137" d="M 367.5 420 L 366.5 422 L 367.5 420 Z " /><path fill="#000000" stroke="#000000" stroke-width="1" opacity="0.4549019607843137" d="M 79.5 421 L 80.5 423 L 79.5 421 Z " /><path fill="#000000" stroke="#000000" stroke-width="1" opacity="0.4549019607843137" d="M 408.5 422 L 409.5 424 L 408.5 422 Z " /><path fill="#000000" stroke="#000000" stroke-width="1" opacity="0.4549019607843137" d="M 363.5 425 L 362.5 427 L 363.5 425 Z " /><path fill="#000000" stroke="#000000" stroke-width="1" opacity="0.4549019607843137" d="M 304.5 428 L 305 431.5 L 304 431.5 L 304.5 428 Z " /><path fill="#000000" stroke="#000000" stroke-width="1" opacity="0.4549019607843137" d="M 471.5 428 L 472 436.5 L 471 436.5 L 471.5 428 Z " /><path fill="#000000" stroke="#000000" stroke-width="1" opacity="0.4549019607843137" d="M 360.5 429 L 359.5 431 L 360.5 429 Z " /><path fill="#000000" stroke="#000000" stroke-width="1" opacity="0.4549019607843137" d="M 40.5 431 L 41 437.5 L 40 437.5 L 40.5 431 Z " /><path fill="#000000" stroke="#000000" stroke-width="1" opacity="0.4549019607843137" d="M 415.5 431 L 416.5 433 L 415.5 431 Z " /><path fill="#000000" stroke="#000000" stroke-width="1" opacity="0.4549019607843137" d="M 357.5 433 L 356.5 435 L 357.5 433 Z " /><path fill="#000000" stroke="#000000" stroke-width="1" opacity="0.4549019607843137" d="M 304.5 435 L 305 437.5 L 304 437.5 L 304.5 435 Z " /><path fill="#000000" stroke="#000000" stroke-width="1" opacity="0.4549019607843137" d="M 418.5 435 L 419.5 437 L 418.5 435 Z " /><path fill="#000000" stroke="#000000" stroke-width="1" opacity="0.4549019607843137" d="M 354.5 437 L 353.5 439 L 354.5 437 Z " /><path fill="#000000" stroke="#000000" stroke-width="1" opacity="0.4549019607843137" d="M 421.5 439 L 422.5 441 L 421.5 439 Z " /><path fill="#000000" stroke="#000000" stroke-width="1" opacity="0.4549019607843137" d="M 351.5 441 L 348.5 445 L 351.5 441 Z " /><path fill="#000000" stroke="#000000" stroke-width="1" opacity="0.4549019607843137" d="M 426.5 445 L 429.5 449 L 426.5 445 Z " /><path fill="#000000" stroke="#000000" stroke-width="1" opacity="0.4549019607843137" d="M 308.5 446 L 312.5 451 L 308.5 446 Z " /><path fill="#000000" stroke="#000000" stroke-width="1" opacity="0.4549019607843137" d="M 344.5 448 L 342.5 451 L 344.5 448 Z " /><path fill="#000000" stroke="#000000" stroke-width="1" opacity="0.4549019607843137" d="M 465.5 448 L 464.5 450 L 465.5 448 Z " /><path fill="#000000" stroke="#000000" stroke-width="1" opacity="0.4549019607843137" d="M 93.5 449 L 94.5 451 L 93.5 449 Z " /><path fill="#000000" stroke="#000000" stroke-width="1" opacity="0.4549019607843137" d="M 432.5 450 L 433.5 452 L 432.5 450 Z " /><path fill="#000000" stroke="#000000" stroke-width="1" opacity="0.4549019607843137" d="M 97.5 454 L 99.5 457 L 97.5 454 Z " /><path fill="#000000" stroke="#000000" stroke-width="1" opacity="0.4549019607843137" d="M 325.5 455 L 332 455.5 L 325.5 456 L 325.5 455 Z " /><path fill="#000000" stroke="#000000" stroke-width="1" opacity="0.4549019607843137" d="M 445.5 455 L 452 455.5 L 445.5 456 L 445.5 455 Z " /><path fill="#000000" stroke="#000000" stroke-width="1" opacity="0.4549019607843137" d="M 143.5 456 L 141.5 459 L 143.5 456 Z " /><path fill="#000000" stroke="#000000" stroke-width="1" opacity="0.4549019607843137" d="M 102.5 459 L 104.5 462 L 102.5 459 Z " /><path fill="#000000" stroke="#000000" stroke-width="1" opacity="0.4549019607843137" d="M 137.5 462 L 135.5 465 L 137.5 462 Z " /><path fill="#000000" stroke="#000000" stroke-width="1" opacity="0.4549019607843137" d="M 59.5 477 L 60.5 479 L 59.5 477 Z " /><path fill="#000000" stroke="#000000" stroke-width="1" opacity="0.4549019607843137" d="M 180.5 480 L 179.5 482 L 180.5 480 Z " /><path fill="#000000" stroke="#000000" stroke-width="1" opacity="0.4549019607843137" d="M 62.5 481 L 65.5 485 L 62.5 481 Z " /><path fill="#000000" stroke="#000000" stroke-width="1" opacity="0.4549019607843137" d="M 175.5 486 L 174.5 488 L 175.5 486 Z " /><path fill="#000000" stroke="#000000" stroke-width="1" opacity="0.4549019607843137" d="M 73.5 492 L 75.5 495 L 73.5 492 Z " /><path fill="#000000" stroke="#000000" stroke-width="1" opacity="0.4549019607843137" d="M 165.5 496 L 164.5 498 L 165.5 496 Z " /><path fill="#000000" stroke="#000000" stroke-width="1" opacity="0.4549019607843137" d="M 82.5 499 L 83.5 501 L 82.5 499 Z " /><path fill="#000000" stroke="#000000" stroke-width="1" opacity="0.4549019607843137" d="M 161.5 499 L 160.5 501 L 161.5 499 Z " /><path fill="#000000" stroke="#000000" stroke-width="1" opacity="0.4549019607843137" d="M 107.5 510 L 110 510.5 L 107.5 511 L 107.5 510 Z " /><path fill="#000000" stroke="#000000" stroke-width="1" opacity="0.4549019607843137" d="M 136.5 510 L 139 510.5 L 136.5 511 L 136.5 510 Z " /><path fill="#000000" stroke="#000000" stroke-width="1" opacity="0.4549019607843137" d="M 113.5 511 L 118 511.5 L 113.5 512 L 113.5 511 Z " /><path fill="#000000" stroke="#000000" stroke-width="1" opacity="0.4549019607843137" d="M 129.5 511 L 133 511.5 L 129.5 512 L 129.5 511 Z " /></svg>